<svg version="1.1" id="Layer_1" xmlns="http://www.w3.org/2000/svg" xmlns:xlink="http://www.w3.org/1999/xlink" x="0px" y="0px"
	 width="100%" viewBox="0 0 1024 1024" enable-background="new 0 0 1024 1024" xml:space="preserve">
<path fill="#060A0E" opacity="1.000000" stroke="none" 
	d="
M648.000000,1025.000000 
	C432.000000,1025.000000 216.500000,1025.000000 1.000000,1025.000000 
	C1.000000,683.666687 1.000000,342.333344 1.000000,1.000000 
	C342.333344,1.000000 683.666687,1.000000 1025.000000,1.000000 
	C1025.000000,342.333344 1025.000000,683.666687 1025.000000,1025.000000 
	C899.500000,1025.000000 774.000000,1025.000000 648.000000,1025.000000 
M548.048218,585.545898 
	C548.358704,585.654175 548.669250,585.762390 549.140381,586.138245 
	C549.140381,586.138245 549.452332,586.127747 549.805298,586.651611 
	C550.193115,586.788940 550.580872,586.926208 550.985901,586.997253 
	C550.985901,586.997253 550.947205,587.054443 551.266968,587.561951 
	C551.817444,587.777466 552.367981,587.993042 552.909790,588.100281 
	C552.909790,588.100281 552.802612,588.118042 553.024048,588.597534 
	C553.344849,588.712585 553.665588,588.827576 554.005859,589.010010 
	C554.005859,589.010010 554.073425,588.991028 554.383667,589.476196 
	C554.909302,589.676147 555.434875,589.876099 555.986328,589.999390 
	C555.986328,589.999390 555.939026,590.065491 556.252869,590.574463 
	C556.795227,590.802917 557.337646,591.031372 557.877502,591.174927 
	C557.877502,591.174927 557.803772,591.217285 558.146057,591.742432 
	C559.090881,592.161499 560.035767,592.580566 560.991760,593.014221 
	C560.991760,593.014221 561.010254,593.015320 561.337280,593.500549 
	C561.873291,593.702576 562.409363,593.904663 563.348694,594.646667 
	C566.577881,596.387024 569.807068,598.127319 573.243591,600.138916 
	C573.243591,600.138916 573.584839,600.127991 573.911316,600.610474 
	C574.272827,600.721985 574.634399,600.833496 575.125732,601.192017 
	C575.125732,601.192017 575.395630,601.121399 575.769958,601.648010 
	C576.173157,601.770813 576.576416,601.893555 577.408508,602.553955 
	C586.565613,607.159180 595.722717,611.764404 605.352356,616.851013 
	C610.414185,618.955261 615.476074,621.059570 621.071533,623.694763 
	C622.998169,624.227417 624.924805,624.760071 626.922424,625.189209 
	C626.922424,625.189209 626.809265,625.243530 627.352295,625.749634 
	C633.482300,627.287109 639.607056,628.664612 645.885620,625.217407 
	C645.885620,625.217407 646.055969,624.947937 646.724121,624.865601 
	C651.375854,622.238953 654.337830,618.173645 655.124512,613.043213 
	C656.077942,606.824951 656.747986,600.487122 656.679199,594.210388 
	C656.614441,588.306763 657.965271,583.433228 662.497742,579.522522 
	C666.965942,575.667236 668.127686,571.023132 665.344360,565.653503 
	C663.301086,561.711609 664.286194,559.094055 667.981567,556.441406 
	C675.192810,551.264893 675.867188,546.909851 671.707520,538.895874 
	C671.017944,537.567383 670.414368,536.194458 669.760193,534.847412 
	C667.908203,531.034180 668.015991,527.465820 671.115967,524.218750 
	C671.115967,524.218750 671.098938,524.156860 671.683167,524.103394 
	C672.125061,523.752502 672.566956,523.401550 673.029724,523.039368 
	C673.029724,523.039368 673.051208,523.029175 673.541809,523.021973 
	C673.541809,523.021973 673.920288,522.709656 674.635498,522.603149 
	C677.104919,521.629883 679.620850,520.759033 682.034668,519.663147 
	C688.135376,516.893250 694.051514,513.749451 697.514832,507.668701 
	C699.510620,504.164642 701.145020,500.307678 697.832458,496.608643 
	C691.308838,489.323853 684.686768,482.127228 677.983276,474.373199 
	C677.690674,474.195435 677.398010,474.017670 677.085693,473.922333 
	C677.085693,473.922333 677.162842,473.887329 677.074341,473.340088 
	C676.782349,473.137604 676.490356,472.935120 676.179138,472.824188 
	C676.179138,472.824188 676.263855,472.784485 676.112610,472.215820 
	C675.420410,471.559021 674.728149,470.902222 674.014282,469.968964 
	C674.014282,469.968964 673.747009,469.895081 673.731750,469.538544 
	C673.604858,469.287384 673.404785,469.195679 672.872253,468.703644 
	C672.261658,468.186218 671.651001,467.668762 670.861206,466.597992 
	C670.562012,466.362183 670.262756,466.126373 669.875793,465.421570 
	C669.703674,465.112671 669.440735,464.954315 669.047241,464.951416 
	C669.047241,464.951416 669.057800,464.912811 668.964172,464.413879 
	C668.694397,464.231628 668.424683,464.049377 668.047363,463.937012 
	C668.047363,463.937012 668.132202,463.840759 667.962402,463.272186 
	C667.371582,462.764740 666.780762,462.257324 666.162415,461.833099 
	C666.162415,461.833099 666.247986,461.814117 666.092041,461.289276 
	C665.791443,461.102600 665.490845,460.915894 665.184631,460.815887 
	C665.184631,460.815887 665.270630,460.803925 665.121643,460.276947 
	C664.707825,459.927094 664.294006,459.577240 663.798035,458.939240 
	C663.798035,458.939240 663.509521,458.858459 663.315002,458.340179 
	C662.614746,458.263275 661.914551,458.186401 661.214294,458.109528 
	C661.086853,459.730743 660.959473,461.351929 660.508789,463.639832 
	C660.491211,464.130096 660.473633,464.620361 660.143433,465.853729 
	C658.304077,476.154022 656.464722,486.454315 654.848572,496.830994 
	C654.848572,496.830994 654.646545,496.709076 654.142578,496.988098 
	C653.714600,497.614227 653.286560,498.240387 652.946106,498.936981 
	C652.946106,498.936981 652.901611,498.833832 652.346069,498.939819 
	C651.920715,499.291656 651.495361,499.643494 650.994263,499.968201 
	C650.994263,499.968201 650.965149,500.043182 650.081726,500.128540 
	C646.398804,499.454224 642.715942,498.779907 639.020935,497.940033 
	C639.020935,497.940033 638.855103,497.948212 638.759155,497.542938 
	C638.600464,497.279114 638.367249,497.150757 638.065918,496.977478 
	C638.065918,496.977478 637.885742,496.966492 637.647400,496.276550 
	C636.694641,493.660126 635.424500,491.111206 634.851074,488.414154 
	C633.379517,481.493378 632.217346,474.506836 631.045410,466.750580 
	C630.579651,462.600311 630.435913,458.382019 629.576721,454.314880 
	C628.083740,447.248016 627.367432,446.909698 620.181641,446.994751 
	C616.528931,447.037994 612.874573,446.942688 608.747192,446.149658 
	C603.105347,445.987549 597.463562,445.825439 590.955444,445.361115 
	C574.349426,445.134827 557.739319,445.052948 541.140381,444.579010 
	C537.077026,444.463043 535.001099,445.675598 533.143921,449.325317 
	C528.073059,459.290710 519.103455,461.611420 509.335907,455.986908 
	C505.897095,454.006744 502.479767,451.989349 498.648682,449.440063 
	C496.751831,448.599976 494.854950,447.759888 492.857147,446.734009 
	C492.857147,446.734009 492.660675,446.812164 492.119385,446.264191 
	C491.373688,446.096313 490.628021,445.928436 489.812714,445.684113 
	C489.812714,445.684113 489.722015,445.733734 489.086395,445.197479 
	C479.033600,442.335327 470.357971,444.926788 464.012817,452.979675 
	C456.427063,462.606995 453.753784,474.119568 458.376282,485.464722 
	C466.721649,505.947083 483.366669,517.511902 504.880981,524.030518 
	C512.779907,524.149780 512.923767,524.129639 514.016418,531.927063 
	C514.960022,538.660706 515.912170,545.433472 516.150879,552.213928 
	C516.385132,558.869202 518.818176,564.349792 523.859802,568.248230 
	C531.183411,573.911255 538.972839,578.971741 546.590027,584.275024 
	C546.590027,584.275024 546.616516,584.285522 546.898560,584.778931 
	C547.247070,584.905579 547.595520,585.032227 547.931885,585.062988 
	C547.931885,585.062988 547.836853,585.081238 548.048218,585.545898 
M630.123474,421.043671 
	C630.123474,421.043671 630.091431,420.757263 630.545288,420.529480 
	C630.765137,420.077484 630.984985,419.625488 631.093079,419.008148 
	C631.093079,419.008148 631.177002,419.189026 631.691223,419.051361 
	C631.869873,418.757874 632.048523,418.464417 632.078369,418.141541 
	C632.078369,418.141541 632.208557,418.219391 633.003479,418.003723 
	C645.126526,414.938477 656.286072,416.188507 665.415039,426.066498 
	C670.615784,417.410004 669.678894,408.865509 667.364746,400.709045 
	C664.176331,389.471130 660.226624,378.423187 656.085938,367.489685 
	C652.826660,358.883575 648.785217,350.573700 645.158447,341.938354 
	C645.158447,341.938354 644.968628,341.860321 644.978760,341.337555 
	C644.677856,340.934540 644.376953,340.531525 644.125793,339.963135 
	C644.125793,339.963135 643.963135,339.905182 643.889771,339.270966 
	C641.940125,338.841003 639.990417,338.411011 637.121765,337.755188 
	C618.460266,337.777222 599.798706,337.799286 580.916138,337.589752 
	C580.562561,337.486298 580.286438,337.574005 579.334900,337.792694 
	C574.834595,341.433044 573.497986,346.242310 575.837341,352.485443 
	C577.522400,356.982452 579.727539,361.292358 581.825745,365.625153 
	C587.139404,376.597870 586.668640,386.785828 577.407898,396.051849 
	C577.202454,396.328247 576.997009,396.604645 576.892517,396.892029 
	C576.892517,396.892029 576.893188,396.790436 576.326233,396.888275 
	C575.905334,397.258759 575.484375,397.629211 574.998901,397.977844 
	C574.998901,397.977844 574.978271,398.042847 574.447693,398.061646 
	C574.202454,398.296539 573.957214,398.531433 573.826965,398.790833 
	C573.826965,398.790833 573.833130,398.673431 573.175171,398.730316 
	C572.404236,399.109497 571.633240,399.488678 570.927429,399.907379 
	C570.927429,399.907379 570.960388,399.838776 570.022949,399.830536 
	C567.532410,399.929504 565.041870,400.111755 562.551270,400.113678 
	C548.577454,400.124329 534.602356,400.190918 520.630798,400.003174 
	C517.163940,399.956573 515.859314,400.961853 516.010437,404.510071 
	C516.250854,410.156311 516.171570,415.820892 516.070312,421.474945 
	C516.017761,424.409668 517.160522,425.726227 520.154663,425.710236 
	C539.443237,425.607178 558.732239,425.569183 578.937195,425.702179 
	C585.980774,425.676788 593.024353,425.651367 600.971497,425.840576 
	C609.150146,425.619049 617.328735,425.397522 625.869141,424.978973 
	C626.034973,424.744141 626.106018,424.483459 626.585632,424.136108 
	C627.416992,423.485046 628.248352,422.833984 629.139282,422.153229 
	C629.139282,422.153229 629.121521,422.089142 629.556458,421.963074 
	C629.828613,421.763031 629.930786,421.497711 630.123474,421.043671 
M448.041534,721.946899 
	C448.041534,721.946899 448.111664,721.890991 447.852112,721.323914 
	C446.974091,720.804016 446.096039,720.284119 445.097870,719.839355 
	C445.097870,719.839355 445.210083,719.777405 445.039307,719.276428 
	C444.720123,719.148438 444.400940,719.020447 443.748657,718.313660 
	C432.958801,710.522278 422.196655,702.691895 411.345154,694.987244 
	C409.936707,693.987244 408.072937,693.086975 406.410339,693.069702 
	C388.435333,692.882507 370.458221,692.843750 352.482391,692.922791 
	C351.396332,692.927551 349.402527,694.243347 349.375854,695.003296 
	C349.132996,701.926636 349.233276,708.862061 349.233276,716.118896 
	C361.799011,716.118896 373.597900,715.984985 385.389404,716.221069 
	C388.052979,716.274353 391.103241,717.000122 393.276398,718.458252 
	C414.133209,732.452454 435.026642,746.408325 455.477325,760.981812 
	C461.707703,765.421631 467.860443,766.779358 475.518677,765.849854 
	C475.690369,765.585571 475.862030,765.321350 476.046814,765.034973 
	C476.046814,765.034973 476.056641,765.011292 476.622772,764.394531 
	C476.656158,740.717163 476.696045,717.039734 476.693695,693.362366 
	C476.693604,692.596985 476.261322,691.831665 476.053436,690.976074 
	C476.053436,690.976074 475.964294,690.949341 475.504456,690.229187 
	C468.992828,690.246704 462.481232,690.264282 455.166962,690.081238 
	C451.294159,689.378235 450.428070,691.248291 450.466614,694.812195 
	C450.564758,703.888489 450.297424,712.968689 450.038849,722.013184 
	C450.038849,722.013184 450.006775,722.151184 449.356506,722.059143 
	C448.924622,721.992493 448.492706,721.925903 448.041534,721.946899 
M494.977753,701.005188 
	C494.977753,701.005188 494.861298,701.139221 495.471771,701.748657 
	C502.449921,701.827698 509.429413,701.848999 516.405518,702.014404 
	C519.183105,702.080322 520.196167,700.985413 520.184937,698.190613 
	C520.091431,674.911011 520.065308,651.630981 520.115540,628.351196 
	C520.122314,625.197815 519.098206,623.853271 515.783508,623.976746 
	C510.303650,624.180664 504.794342,624.297668 499.328949,623.952698 
	C495.239380,623.694519 493.892609,624.876343 493.925385,629.129944 
	C494.098480,651.576965 493.950470,674.026245 493.983521,696.474731 
	C493.985809,698.028870 494.554047,699.582275 494.977753,701.005188 
M562.891846,290.610413 
	C569.953430,290.539032 577.015015,290.467621 584.975159,290.632507 
	C608.109924,290.676453 631.245483,290.833679 654.378784,290.670563 
	C659.110962,290.637207 660.971558,292.551880 660.370789,296.823303 
	C659.331116,304.213684 658.052124,311.576599 656.634277,318.904755 
	C656.001160,322.176941 654.788391,325.336975 653.510986,329.655884 
	C665.109680,322.703156 670.165466,313.320801 670.743286,301.416077 
	C672.016602,275.180237 653.035950,249.952515 618.731018,242.793579 
	C619.150574,244.542297 619.767212,246.104721 619.845703,247.693710 
	C619.944275,249.689041 620.205872,253.044632 619.326904,253.441238 
	C617.366272,254.325851 614.546875,254.322357 612.430054,253.619171 
	C608.815796,252.418549 605.472351,250.402664 601.536255,248.248505 
	C594.049438,244.814941 586.272156,242.987350 577.063538,243.805191 
	C560.042419,243.858170 543.021301,243.911148 525.113220,243.760315 
	C517.267334,243.512711 517.255127,243.512711 517.258972,251.316666 
	C517.264343,262.310822 517.135376,273.308533 517.387024,284.297302 
	C517.480896,288.399384 516.248352,289.974731 512.030945,289.765961 
	C506.123169,289.473541 500.190094,289.692139 494.078308,289.692139 
	C494.078308,297.824921 494.078308,305.271942 494.075775,313.571381 
	C495.051361,314.044769 496.025238,314.926392 497.002747,314.930481 
	C512.583801,314.995850 528.165344,314.924377 543.746643,314.952148 
	C546.312561,314.956696 547.241394,313.884491 547.194275,311.361694 
	C547.092163,305.893738 547.278992,300.420013 547.157166,294.952942 
	C547.085754,291.751404 548.376526,290.470947 551.576843,290.569977 
	C555.040283,290.677094 558.514343,290.441315 562.891846,290.610413 
M373.500610,401.556976 
	C353.913940,401.556976 334.327271,401.556976 314.181854,401.556976 
	C314.181854,407.893829 314.363068,413.542053 314.119507,419.171875 
	C313.951202,423.062103 315.254028,424.290161 319.246826,424.261932 
	C340.073730,424.114685 360.902710,424.277802 381.731018,424.314362 
	C394.394684,424.336578 407.059875,424.412720 419.720154,424.205414 
	C421.124542,424.182434 423.646362,422.522034 423.704041,421.510101 
	C424.070618,415.077515 423.890472,408.613800 423.890472,401.552734 
	C407.070404,401.552734 390.785522,401.552734 373.500610,401.556976 
M432.500000,279.996490 
	C445.979187,280.003143 459.459991,279.895844 472.936462,280.089996 
	C476.692871,280.144073 477.973114,278.877258 477.789703,275.197510 
	C477.541473,270.216583 477.600586,265.214111 477.699585,260.224274 
	C477.766479,256.853485 476.490540,255.585007 472.976379,255.617722 
	C454.340057,255.791245 435.693329,255.442169 417.068787,255.951965 
	C410.890228,256.121063 404.505585,257.592102 398.677032,259.728180 
	C388.970062,263.285614 388.876465,264.361298 388.826965,274.792725 
	C388.808105,278.761841 390.197083,279.986359 394.058685,279.942535 
	C406.537323,279.800903 419.019318,279.951202 432.500000,279.996490 
M409.463348,365.850281 
	C408.802856,366.461700 407.580292,367.062073 407.567963,367.686249 
	C407.431244,374.624329 407.481812,381.566132 407.481812,388.167938 
	C408.514771,388.621857 408.815857,388.869843 409.117126,388.870117 
	C436.592499,388.895325 464.068146,388.945099 491.542084,388.751038 
	C492.651886,388.743195 494.591553,386.484711 494.694519,385.161926 
	C495.068115,380.362762 494.587158,375.500854 494.884979,370.690857 
	C495.132782,366.688324 493.663879,365.646210 489.769012,365.671326 
	C463.291992,365.842194 436.813446,365.781677 409.463348,365.850281 
M361.500000,389.065063 
	C369.582458,389.065063 377.664917,389.065063 385.938232,389.065063 
	C385.938232,381.637238 386.086060,374.993500 385.766296,368.372375 
	C385.722321,367.461365 383.362732,365.931000 382.065857,365.921234 
	C362.080780,365.770691 342.093964,365.795410 322.108215,365.900055 
	C320.841248,365.906708 318.606598,366.721924 318.466553,367.469147 
	C317.148865,374.500366 316.189331,381.598694 315.068848,389.060791 
	C331.205170,389.060791 345.852570,389.060791 361.500000,389.065063 
M373.484955,459.767639 
	C377.899200,459.767639 382.313477,459.767639 386.699921,459.767639 
	C386.699921,453.176331 386.521118,447.526825 386.765076,441.895599 
	C386.918427,438.356201 385.695099,437.362091 382.185852,437.405670 
	C364.880493,437.620636 347.571899,437.567261 330.264557,437.632629 
	C328.691528,437.638580 327.119171,437.815735 325.113159,437.940277 
	C325.559967,444.006683 326.083344,449.452454 326.321777,454.910675 
	C326.491730,458.800262 328.348450,459.812317 332.050995,459.766174 
	C345.528717,459.598083 359.010284,459.740234 373.484955,459.767639 
M348.502838,473.316010 
	C342.732025,473.316010 336.961182,473.316010 330.038727,473.316010 
	C331.711884,479.799957 333.307251,485.316162 334.515839,490.915833 
	C335.242432,494.282257 336.801270,495.506683 340.314545,495.442291 
	C351.784302,495.231964 363.260193,495.353790 374.733704,495.348907 
	C378.839386,495.347168 382.945068,495.348602 387.139038,495.348602 
	C387.139038,487.882172 387.139038,480.992157 387.139038,473.321136 
	C374.332520,473.321136 361.917114,473.321136 348.502838,473.316010 
M476.487244,577.388550 
	C475.886414,576.902039 475.290680,575.999573 474.683929,575.992126 
	C466.912018,575.896606 459.138550,575.929077 450.796295,575.929077 
	C450.796295,590.661011 450.725098,604.906494 450.965454,619.146729 
	C450.980591,620.042542 453.395050,621.585632 454.750702,621.651794 
	C460.556305,621.935120 466.386444,621.665710 472.201538,621.823425 
	C475.627258,621.916321 476.867981,620.642944 476.816925,617.148376 
	C476.627319,604.182129 476.687561,591.212219 476.487244,577.388550 
M476.741150,672.113342 
	C476.751526,660.955078 476.664978,649.795471 476.826691,638.639404 
	C476.880646,634.917908 475.872101,633.088318 471.768616,633.303223 
	C466.453125,633.581726 461.108582,633.537659 455.785553,633.361023 
	C452.043945,633.236816 450.466187,634.381409 450.608429,638.455078 
	C450.904694,646.938416 450.701721,655.439148 450.703247,663.932739 
	C450.704041,668.200378 450.703400,672.468018 450.703400,677.178162 
	C458.961365,677.178162 466.429199,677.335449 473.874084,676.993286 
	C474.887390,676.946777 475.785950,674.402649 476.741150,672.113342 
M356.531128,509.483887 
	C352.431488,509.483887 348.331818,509.483887 342.990845,509.483887 
	C345.995026,517.177185 348.558228,523.937256 351.344818,530.603821 
	C351.656982,531.350647 353.231750,531.961182 354.227234,531.970459 
	C364.534332,532.067078 374.843994,532.095398 385.148773,531.911865 
	C386.102966,531.894897 387.809814,530.318604 387.842712,529.418030 
	C388.077362,522.991882 387.967957,516.553162 387.967957,509.482269 
	C377.387177,509.482269 367.454468,509.482269 356.531128,509.483887 
M375.452545,315.099487 
	C376.952118,315.085632 378.469055,314.918976 379.947937,315.087097 
	C384.079620,315.556732 385.610992,313.916016 385.285522,309.712555 
	C384.939240,305.239838 385.065582,300.716034 385.228577,296.223328 
	C385.344177,293.037476 384.242767,291.762451 380.919830,291.845581 
	C373.926514,292.020477 366.924744,291.830536 359.926819,291.867798 
	C358.625824,291.874725 356.892975,291.778625 356.095245,292.520874 
	C349.534027,298.625763 344.039764,305.545929 339.680511,315.105835 
	C352.018219,315.105835 363.242645,315.105835 375.452545,315.099487 
M421.063263,558.347351 
	C421.533722,561.071045 419.422028,565.171570 424.967957,565.099182 
	C433.457855,564.988220 441.955139,565.204590 450.436005,564.905884 
	C451.663086,564.862671 453.771851,562.784058 453.842072,561.554199 
	C454.183105,555.580933 454.164703,549.563782 453.796997,543.591614 
	C453.717072,542.293884 451.717255,540.090088 450.539124,540.047729 
	C441.892365,539.737305 433.229034,539.924866 424.572235,539.834351 
	C421.611511,539.803406 420.926788,541.293396 420.999359,543.895447 
	C421.124664,548.387695 421.053253,552.885437 421.063263,558.347351 
M407.438965,471.300568 
	C407.370911,477.793793 407.375763,484.288971 407.201202,490.779327 
	C407.124542,493.629486 408.446045,494.673645 411.089691,494.662262 
	C418.754669,494.629272 426.424713,494.764862 434.079620,494.480377 
	C435.245911,494.437042 437.261078,492.561127 437.318573,491.451721 
	C437.637238,485.303070 437.583435,479.125397 437.367371,472.967834 
	C437.329407,471.886322 435.913849,469.935303 435.139130,469.937592 
	C426.038788,469.964355 416.939331,470.287476 407.438965,471.300568 
M348.470856,343.367004 
	C348.486572,339.714722 348.460541,336.061615 348.531403,332.410431 
	C348.587219,329.535980 347.411560,328.105804 344.389587,328.229889 
	C328.540405,328.880646 331.908905,324.987915 325.918610,340.767181 
	C325.095642,342.934998 324.600220,345.225311 323.824799,347.413422 
	C322.740906,350.471893 323.895782,351.836243 326.979980,351.850677 
	C331.628662,351.872406 336.277557,351.884094 340.926270,351.867859 
	C348.556488,351.841156 348.556458,351.830261 348.470856,343.367004 
M385.647034,346.179199 
	C385.605347,341.696472 385.428009,337.209564 385.565460,332.732330 
	C385.672791,329.235779 384.198639,328.024384 380.804932,328.215332 
	C376.831665,328.438934 372.837463,328.363892 368.853912,328.307373 
	C365.965179,328.266388 364.586548,329.463348 364.622437,332.449951 
	C364.684296,337.595673 364.672943,342.745819 364.522858,347.889160 
	C364.433441,350.954834 365.831970,352.013519 368.727600,351.934174 
	C372.875580,351.820374 377.034485,351.752808 381.177704,351.927246 
	C384.769257,352.078491 385.951538,350.360199 385.647034,346.179199 
M643.618469,434.416870 
	C641.520142,451.653046 644.474182,468.497498 646.602661,486.527008 
	C647.947449,485.024567 648.519287,484.688263 648.555603,484.301636 
	C650.093323,467.933685 651.686035,451.568848 652.893738,435.175720 
	C652.995605,433.792847 650.617004,431.205139 649.140564,431.002808 
	C647.519653,430.780609 645.608826,432.673828 643.618469,434.416870 
z"/>
<path fill="#FED412" opacity="1.000000" stroke="none" 
	d="
M620.537903,623.163879 
	C615.476074,621.059570 610.414185,618.955261 605.008728,616.291809 
	C603.417114,614.098267 601.603699,612.814453 603.852234,610.329102 
	C605.066040,608.987427 605.524536,606.699280 605.748108,604.771423 
	C606.621826,597.237671 607.667847,589.690430 607.914795,582.124207 
	C608.500366,564.181152 608.686035,546.224609 608.991028,528.272888 
	C609.087158,522.613586 609.060242,516.952026 609.068970,511.291534 
	C609.076660,506.358673 609.066528,501.425690 609.043640,496.492859 
	C609.019226,491.227814 608.862915,485.961029 608.954224,480.698273 
	C609.163208,468.642517 609.195374,456.677002 598.015930,446.910004 
	C602.388733,446.910004 605.804871,446.910004 609.220947,446.910004 
	C612.874573,446.942688 616.528931,447.037994 620.181641,446.994751 
	C627.367432,446.909698 628.083740,447.248016 629.576721,454.314880 
	C630.435913,458.382019 630.579651,462.600311 630.978699,467.523499 
	C631.626953,474.162354 632.066345,480.079956 633.152527,485.876312 
	C633.891846,489.822113 633.036072,494.688812 637.885742,496.966492 
	C637.885742,496.966492 638.065918,496.977478 638.147400,497.241272 
	C638.388367,497.722290 638.597107,497.870026 638.855103,497.948212 
	C638.855103,497.948212 639.020935,497.940033 639.111206,498.338379 
	C641.123840,499.797974 643.046143,500.859192 644.992554,502.303528 
	C646.003235,505.457886 647.662354,508.183441 647.854370,511.008667 
	C648.512207,520.692444 648.904297,530.410645 648.921448,540.116577 
	C648.937012,548.888489 648.209473,557.658997 648.029968,566.434692 
	C647.864807,574.507507 648.181946,582.591980 647.935486,590.660706 
	C647.718201,597.773926 646.030334,604.972168 650.260071,611.584290 
	C650.569214,612.067566 650.610474,612.940247 650.407715,613.497803 
	C649.012085,617.334473 647.518188,621.135437 646.055969,624.947937 
	C646.055969,624.947937 645.885620,625.217407 645.268066,625.163574 
	C638.703491,625.154358 632.756348,625.198975 626.809265,625.243530 
	C626.809265,625.243530 626.922424,625.189209 626.658936,624.950317 
	C624.442871,624.195618 622.490417,623.679749 620.537903,623.163879 
z"/>
<path fill="#FECA1B" opacity="1.000000" stroke="none" 
	d="
M608.984070,446.529846 
	C605.804871,446.910004 602.388733,446.910004 598.015930,446.910004 
	C609.195374,456.677002 609.163208,468.642517 608.954224,480.698273 
	C608.862915,485.961029 609.019226,491.227814 609.043640,496.492859 
	C609.066528,501.425690 609.076660,506.358673 609.068970,511.291534 
	C609.060242,516.952026 609.087158,522.613586 608.991028,528.272888 
	C608.686035,546.224609 608.500366,564.181152 607.914795,582.124207 
	C607.667847,589.690430 606.621826,597.237671 605.748108,604.771423 
	C605.524536,606.699280 605.066040,608.987427 603.852234,610.329102 
	C601.603699,612.814453 603.417114,614.098267 604.772461,616.051147 
	C595.722717,611.764404 586.565613,607.159180 576.967407,602.077576 
	C576.149414,601.441284 575.772522,601.281372 575.395630,601.121399 
	C575.395630,601.121399 575.125732,601.192017 574.859009,600.879517 
	C574.256470,600.420654 573.920654,600.274292 573.584839,600.127991 
	C573.584839,600.127991 573.243591,600.138916 573.293640,599.667603 
	C573.187195,594.343079 572.991211,589.490784 572.880859,584.636597 
	C572.358276,561.654175 571.554077,538.672424 571.463989,515.688049 
	C571.408203,501.454041 572.980347,487.209381 572.810181,472.981628 
	C572.698975,463.687042 572.327637,454.011963 566.496582,446.060669 
	C575.249390,445.920349 583.535522,445.791840 591.821716,445.663330 
	C597.463562,445.825439 603.105347,445.987549 608.984070,446.529846 
z"/>
<path fill="#FDB822" opacity="1.000000" stroke="none" 
	d="
M591.388550,445.512207 
	C583.535522,445.791840 575.249390,445.920349 566.024597,446.040344 
	C557.669128,446.031830 550.252197,446.031830 542.242920,446.031830 
	C543.073547,452.263702 543.943481,457.640320 544.465820,463.050476 
	C544.938660,467.946655 545.341675,472.886383 545.231873,477.794739 
	C544.961853,489.865112 544.267761,501.925659 543.958801,513.995605 
	C543.730957,522.900696 544.318481,531.848328 543.688293,540.716248 
	C542.770874,553.625366 542.676758,566.358276 546.379395,578.911682 
	C546.870728,580.577393 546.522827,582.490601 546.563599,584.289185 
	C538.972839,578.971741 531.183411,573.911255 523.859802,568.248230 
	C518.818176,564.349792 516.385132,558.869202 516.150879,552.213928 
	C515.912170,545.433472 514.960022,538.660706 514.016418,531.927063 
	C512.923767,524.129639 512.779907,524.149780 504.319458,523.629272 
	C503.241150,522.843567 502.778687,522.314575 502.199188,522.096558 
	C494.945984,519.368347 491.923401,512.499146 494.959839,504.708588 
	C501.979980,504.965851 503.603699,503.635376 502.846283,497.334198 
	C502.535736,494.750336 500.932251,492.180908 499.438538,489.921112 
	C498.029388,487.789368 495.991913,486.072937 493.807495,483.717346 
	C499.718658,482.257935 498.535736,478.795227 496.878082,474.892456 
	C496.242004,474.041077 495.645294,473.508850 495.023804,472.987549 
	C494.998993,472.998474 495.023163,472.949921 494.941956,472.645996 
	C494.193207,471.930511 493.525696,471.518890 492.898895,471.092407 
	C492.939575,471.077515 492.963135,471.160858 492.751190,470.917358 
	C492.153717,470.488953 491.768188,470.304077 491.267212,470.162231 
	C491.151794,470.205261 491.038300,469.986572 490.798523,469.777466 
	C490.163025,469.420929 489.767273,469.273499 489.270264,469.190369 
	C489.168976,469.254700 489.024261,469.063354 489.017548,468.678894 
	C488.650848,467.237976 488.584503,465.894196 487.880310,465.174500 
	C484.752319,461.977600 486.169067,458.960175 488.477203,456.506104 
	C493.874084,450.767944 493.999939,450.893616 486.905334,448.307190 
	C486.699799,448.232239 486.640381,447.756439 486.468597,447.367371 
	C486.742401,447.038483 486.971588,446.518372 487.352356,446.357880 
	C488.097534,446.043793 488.927277,445.930298 489.722015,445.733765 
	C489.722015,445.733734 489.812714,445.684113 490.132568,445.985718 
	C491.188477,446.462280 491.924591,446.637238 492.660675,446.812164 
	C492.660675,446.812164 492.857147,446.734009 493.092957,447.128113 
	C495.236694,448.344452 497.144653,449.166687 499.052612,449.988922 
	C502.479767,451.989349 505.897095,454.006744 509.335907,455.986908 
	C519.103455,461.611420 528.073059,459.290710 533.143921,449.325317 
	C535.001099,445.675598 537.077026,444.463043 541.140381,444.579010 
	C557.739319,445.052948 574.349426,445.134827 591.388550,445.512207 
z"/>
<path fill="#FDE604" opacity="1.000000" stroke="none" 
	d="
M475.011627,765.759644 
	C467.860443,766.779358 461.707703,765.421631 455.477325,760.981812 
	C435.026642,746.408325 414.133209,732.452454 393.276398,718.458252 
	C391.103241,717.000122 388.052979,716.274353 385.389404,716.221069 
	C373.597900,715.984985 361.799011,716.118896 349.233276,716.118896 
	C349.233276,708.862061 349.132996,701.926636 349.375854,695.003296 
	C349.402527,694.243347 351.396332,692.927551 352.482391,692.922791 
	C370.458221,692.843750 388.435333,692.882507 406.410339,693.069702 
	C408.072937,693.086975 409.936707,693.987244 411.345154,694.987244 
	C422.196655,702.691895 432.958801,710.522278 444.042419,718.817261 
	C444.627472,719.473022 444.918793,719.625183 445.210083,719.777405 
	C445.210083,719.777405 445.097870,719.839355 445.259827,720.112793 
	C446.318420,720.887817 447.215027,721.389404 448.111664,721.890991 
	C448.111664,721.890991 448.041534,721.946899 448.179504,722.115906 
	C448.880585,722.240356 449.443695,722.195801 450.006775,722.151184 
	C450.006775,722.151184 450.038849,722.013184 450.458160,721.877014 
	C451.258026,717.818298 451.638580,713.895691 452.353058,710.075317 
	C454.699524,710.970337 456.719391,712.435120 458.723022,712.413208 
	C462.647247,712.370483 466.549011,711.282654 470.485565,711.038879 
	C473.607727,710.845520 475.108856,709.620483 474.981537,706.476807 
	C474.794098,701.849915 474.577911,697.222778 474.524384,692.593994 
	C474.518097,692.051392 475.461273,691.497864 475.964294,690.949341 
	C475.964294,690.949341 476.053436,690.976074 476.003357,691.483398 
	C475.987701,716.330872 476.022156,740.671082 476.056641,765.011292 
	C476.056641,765.011292 476.046814,765.034973 475.841675,765.117920 
	C475.381714,765.335083 475.173401,765.521362 475.011627,765.759644 
z"/>
<path fill="#FEC11D" opacity="1.000000" stroke="none" 
	d="
M546.576782,584.282104 
	C546.522827,582.490601 546.870728,580.577393 546.379395,578.911682 
	C542.676758,566.358276 542.770874,553.625366 543.688293,540.716248 
	C544.318481,531.848328 543.730957,522.900696 543.958801,513.995605 
	C544.267761,501.925659 544.961853,489.865112 545.231873,477.794739 
	C545.341675,472.886383 544.938660,467.946655 544.465820,463.050476 
	C543.943481,457.640320 543.073547,452.263702 542.242920,446.031830 
	C550.252197,446.031830 557.669128,446.031830 565.557983,446.052124 
	C572.327637,454.011963 572.698975,463.687042 572.810181,472.981628 
	C572.980347,487.209381 571.408203,501.454041 571.463989,515.688049 
	C571.554077,538.672424 572.358276,561.654175 572.880859,584.636597 
	C572.991211,589.490784 573.187195,594.343079 573.189941,599.531982 
	C569.807068,598.127319 566.577881,596.387024 562.968262,594.149841 
	C562.061951,593.440491 561.536072,593.227905 561.010254,593.015320 
	C561.010254,593.015320 560.991760,593.014221 560.885620,592.678284 
	C559.787598,591.967346 558.795654,591.592346 557.803772,591.217285 
	C557.803772,591.217285 557.877502,591.174927 557.716187,590.963257 
	C557.016174,590.522827 556.477600,590.294189 555.939026,590.065552 
	C555.939026,590.065491 555.986328,589.999390 555.795776,589.817383 
	C555.094666,589.420654 554.584045,589.205811 554.073425,588.991028 
	C554.073425,588.991028 554.005859,589.010010 553.835815,588.791504 
	C553.414917,588.351379 553.127197,588.199707 552.802612,588.118042 
	C552.802612,588.118042 552.909790,588.100281 552.740173,587.909058 
	C552.029419,587.496765 551.488342,587.275574 550.947205,587.054443 
	C550.947205,587.054443 550.985901,586.997253 550.765320,586.814941 
	C550.180603,586.464294 549.816467,586.296021 549.452332,586.127747 
	C549.452332,586.127747 549.140381,586.138245 548.901855,585.829956 
	C548.422546,585.309753 548.147034,585.162964 547.836853,585.081238 
	C547.836853,585.081238 547.931885,585.062988 547.767822,584.896118 
	C547.274719,584.581299 546.945618,584.433411 546.616516,584.285522 
	C546.616516,584.285522 546.590027,584.275024 546.576782,584.282104 
z"/>
<path fill="#FECA1B" opacity="1.000000" stroke="none" 
	d="
M600.067932,425.625977 
	C593.024353,425.651367 585.980774,425.676788 578.278320,425.295288 
	C574.864014,424.594299 572.113281,424.111664 569.352295,424.043121 
	C562.363220,423.869598 560.729309,421.562897 563.265320,415.009521 
	C563.680664,413.936401 564.377930,412.969971 564.966309,411.966797 
	C566.345215,409.615845 565.758606,408.004242 563.370544,406.657684 
	C560.661865,405.130341 558.125854,403.296753 555.575745,401.635986 
	C560.886719,401.015564 565.923584,400.427155 570.960388,399.838745 
	C570.960388,399.838776 570.927429,399.907379 571.242004,399.916504 
	C572.315430,399.508240 573.074280,399.090820 573.833130,398.673401 
	C573.833130,398.673431 573.826965,398.790833 574.015808,398.726257 
	C574.462524,398.455414 574.720398,398.249146 574.978271,398.042847 
	C574.978271,398.042847 574.998901,397.977844 575.315918,397.940948 
	C576.052979,397.532867 576.473083,397.161652 576.893188,396.790466 
	C576.893188,396.790436 576.892517,396.892029 577.076660,396.786255 
	C577.482788,396.430542 577.704834,396.180542 577.926880,395.930542 
	C586.668640,386.785828 587.139404,376.597870 581.825745,365.625153 
	C579.727539,361.292358 577.522400,356.982452 575.837341,352.485443 
	C573.497986,346.242310 574.834595,341.433044 579.970459,337.805603 
	C580.783142,337.819458 580.960144,337.820374 581.137207,337.821320 
	C599.798706,337.799286 618.460266,337.777222 637.286865,338.097900 
	C635.969666,338.629089 634.487244,338.817596 632.535889,339.002686 
	C622.360291,338.999329 612.653687,338.999329 602.947021,338.999329 
	C607.573364,342.620972 607.835205,347.076385 608.083984,351.834656 
	C608.515930,360.095734 609.492554,368.327148 610.150391,376.578186 
	C610.448547,380.316650 610.647034,384.071045 610.687439,387.820404 
	C610.791199,397.452148 611.723511,407.212891 610.441895,416.666809 
	C609.740967,421.838104 609.998352,424.023254 614.560913,424.902893 
	C609.419495,425.167572 604.743713,425.396759 600.067932,425.625977 
z"/>
<path fill="#F95C39" opacity="1.000000" stroke="none" 
	d="
M602.015198,248.729202 
	C605.472351,250.402664 608.815796,252.418549 612.430054,253.619171 
	C614.546875,254.322357 617.366272,254.325851 619.326904,253.441238 
	C620.205872,253.044632 619.944275,249.689041 619.845703,247.693710 
	C619.767212,246.104721 619.150574,244.542297 618.731018,242.793579 
	C653.035950,249.952515 672.016602,275.180237 670.743286,301.416077 
	C670.165466,313.320801 665.109680,322.703156 653.510986,329.655884 
	C654.788391,325.336975 656.001160,322.176941 656.634277,318.904755 
	C658.052124,311.576599 659.331116,304.213684 660.370789,296.823303 
	C660.971558,292.551880 659.110962,290.637207 654.378784,290.670563 
	C631.245483,290.833679 608.109924,290.676453 584.731445,290.220520 
	C587.564209,289.542358 590.639038,289.070526 593.717407,289.046082 
	C606.014771,288.948364 607.218018,287.653595 605.930176,275.289703 
	C605.845032,274.471863 605.529724,273.672760 605.488403,272.856476 
	C605.075623,264.705414 605.112854,256.493134 602.015198,248.729202 
z"/>
<path fill="#03CBFA" opacity="1.000000" stroke="none" 
	d="
M374.000641,401.554871 
	C390.785522,401.552734 407.070404,401.552734 423.890472,401.552734 
	C423.890472,408.613800 424.070618,415.077515 423.704041,421.510101 
	C423.646362,422.522034 421.124542,424.182434 419.720154,424.205414 
	C407.059875,424.412720 394.394684,424.336578 381.731018,424.314362 
	C360.902710,424.277802 340.073730,424.114685 319.246826,424.261932 
	C315.254028,424.290161 313.951202,423.062103 314.119507,419.171875 
	C314.363068,413.542053 314.181854,407.893829 314.181854,401.556976 
	C334.327271,401.556976 353.913940,401.556976 374.000641,401.554871 
z"/>
<path fill="#FED412" opacity="1.000000" stroke="none" 
	d="
M615.026489,424.867432 
	C609.998352,424.023254 609.740967,421.838104 610.441895,416.666809 
	C611.723511,407.212891 610.791199,397.452148 610.687439,387.820404 
	C610.647034,384.071045 610.448547,380.316650 610.150391,376.578186 
	C609.492554,368.327148 608.515930,360.095734 608.083984,351.834656 
	C607.835205,347.076385 607.573364,342.620972 602.947021,338.999329 
	C612.653687,338.999329 622.360291,338.999329 632.671448,339.351501 
	C636.838318,339.770844 640.400757,339.838013 643.963135,339.905182 
	C643.963135,339.905182 644.125793,339.963135 644.141235,340.293274 
	C644.427368,341.035736 644.697998,341.448029 644.968628,341.860321 
	C644.968628,341.860321 645.158447,341.938354 645.113647,342.421936 
	C646.581055,346.987976 644.034607,350.448975 643.516968,354.181030 
	C642.345337,362.627686 642.338928,371.245087 642.033264,379.799316 
	C641.849792,384.933594 642.447327,390.131958 641.859802,395.204926 
	C641.324585,399.825745 641.065063,406.009247 638.139954,408.430267 
	C634.581482,411.375488 632.674866,414.004639 632.208557,418.219391 
	C632.208557,418.219391 632.078369,418.141541 631.938232,418.282166 
	C631.529358,418.628265 631.322388,418.883698 631.177002,419.189026 
	C631.177002,419.189026 631.093079,419.008148 630.930786,419.224518 
	C630.542847,419.879700 630.317139,420.318481 630.091431,420.757263 
	C630.091431,420.757263 630.123474,421.043671 629.840332,421.229645 
	C629.375488,421.616516 629.230286,421.841034 629.121521,422.089142 
	C629.121521,422.089142 629.139282,422.153229 628.785217,422.181030 
	C627.648193,422.871521 626.865234,423.534210 626.082275,424.196899 
	C626.106018,424.483459 626.034973,424.744141 625.200073,425.028656 
	C621.362793,425.008026 618.194641,424.937744 615.026489,424.867432 
z"/>
<path fill="#FB3550" opacity="1.000000" stroke="none" 
	d="
M526.000183,243.964127 
	C543.021301,243.911148 560.042419,243.858170 577.550720,244.317932 
	C578.687927,257.027039 579.488037,269.217957 579.926514,281.421906 
	C580.156738,287.832062 578.770935,288.795868 572.450745,289.044189 
	C568.950012,289.181763 565.471985,289.899078 561.983765,290.355103 
	C558.514343,290.441315 555.040283,290.677094 551.576843,290.569977 
	C548.376526,290.470947 547.085754,291.751404 547.157166,294.952942 
	C547.278992,300.420013 547.092163,305.893738 547.194275,311.361694 
	C547.241394,313.884491 546.312561,314.956696 543.746643,314.952148 
	C528.165344,314.924377 512.583801,314.995850 497.002747,314.930481 
	C496.025238,314.926392 495.051361,314.044769 494.060547,312.863739 
	C494.082825,311.663391 494.120361,311.170685 494.120148,311.173187 
	C495.483490,312.057922 496.941101,313.803986 498.452362,313.851685 
	C506.775909,314.114288 515.114136,314.052917 523.443970,313.909180 
	C527.011353,313.847626 529.701538,312.475677 530.787354,308.485870 
	C531.607056,305.473846 533.378296,302.732605 534.572571,299.808167 
	C536.899292,294.110626 539.079468,288.660400 536.476013,282.081757 
	C534.374695,276.771820 534.222778,270.724701 532.710266,265.138855 
	C530.776184,257.996552 533.655212,249.287369 526.000183,243.964127 
z"/>
<path fill="#FCDD08" opacity="1.000000" stroke="none" 
	d="
M646.390015,624.906738 
	C647.518188,621.135437 649.012085,617.334473 650.407715,613.497803 
	C650.610474,612.940247 650.569214,612.067566 650.260071,611.584290 
	C646.030334,604.972168 647.718201,597.773926 647.935486,590.660706 
	C648.181946,582.591980 647.864807,574.507507 648.029968,566.434692 
	C648.209473,557.658997 648.937012,548.888489 648.921448,540.116577 
	C648.904297,530.410645 648.512207,520.692444 647.854370,511.008667 
	C647.662354,508.183441 646.003235,505.457886 645.366821,502.310059 
	C647.466431,501.303375 649.215759,500.673279 650.965149,500.043182 
	C650.965149,500.043182 650.994263,499.968201 651.319214,499.953369 
	C652.063232,499.570282 652.482422,499.202057 652.901611,498.833801 
	C652.901611,498.833832 652.946106,498.936981 653.223572,498.849792 
	C653.882874,498.078094 654.264709,497.393585 654.646545,496.709076 
	C654.646545,496.709076 654.848572,496.830994 655.065918,496.631104 
	C659.591736,486.417786 660.753113,475.884644 660.456055,465.110626 
	C660.473633,464.620361 660.491211,464.130096 660.910522,463.116547 
	C662.044739,461.348328 662.777100,460.103394 663.509521,458.858459 
	C663.509521,458.858459 663.798035,458.939240 663.918457,459.354065 
	C664.449463,460.113922 664.860046,460.458923 665.270630,460.803925 
	C665.270630,460.803925 665.184631,460.815887 665.295166,461.012634 
	C665.686401,461.410980 665.967224,461.612549 666.247986,461.814117 
	C666.247986,461.814117 666.162415,461.833099 666.259644,462.083435 
	C666.948669,462.836121 667.540466,463.338440 668.132202,463.840759 
	C668.132202,463.840759 668.047363,463.937012 668.192993,464.120819 
	C668.516052,464.580933 668.755798,464.783661 669.057800,464.912811 
	C669.057800,464.912811 669.047241,464.951416 669.157532,465.153442 
	C669.438843,465.613068 669.670715,465.791412 669.963562,465.890564 
	C670.262756,466.126373 670.562012,466.362183 670.766846,467.232849 
	C669.785217,474.078308 668.730408,480.271545 668.084595,486.507111 
	C667.780579,489.442261 667.492615,492.767426 668.538757,495.378387 
	C671.254517,502.156128 669.790710,508.452301 667.510071,514.770081 
	C665.195923,521.180542 665.140015,521.266602 671.065369,524.258301 
	C668.015991,527.465820 667.908203,531.034180 669.760193,534.847412 
	C670.414368,536.194458 671.017944,537.567383 671.707520,538.895874 
	C675.867188,546.909851 675.192810,551.264893 667.981567,556.441406 
	C664.286194,559.094055 663.301086,561.711609 665.344360,565.653503 
	C668.127686,571.023132 666.965942,575.667236 662.497742,579.522522 
	C657.965271,583.433228 656.614441,588.306763 656.679199,594.210388 
	C656.747986,600.487122 656.077942,606.824951 655.124512,613.043213 
	C654.337830,618.173645 651.375854,622.238953 646.390015,624.906738 
z"/>
<path fill="#E31B6F" opacity="1.000000" stroke="none" 
	d="
M432.000000,279.992737 
	C419.019318,279.951202 406.537323,279.800903 394.058685,279.942535 
	C390.197083,279.986359 388.808105,278.761841 388.826965,274.792725 
	C388.876465,264.361298 388.970062,263.285614 398.677032,259.728180 
	C404.505585,257.592102 410.890228,256.121063 417.068787,255.951965 
	C435.693329,255.442169 454.340057,255.791245 472.976379,255.617722 
	C476.490540,255.585007 477.766479,256.853485 477.699585,260.224274 
	C477.600586,265.214111 477.541473,270.216583 477.789703,275.197510 
	C477.973114,278.877258 476.692871,280.144073 472.936462,280.089996 
	C459.459991,279.895844 445.979187,280.003143 432.000000,279.992737 
z"/>
<path fill="#03CBFA" opacity="1.000000" stroke="none" 
	d="
M409.899384,365.823120 
	C436.813446,365.781677 463.291992,365.842194 489.769012,365.671326 
	C493.663879,365.646210 495.132782,366.688324 494.884979,370.690857 
	C494.587158,375.500854 495.068115,380.362762 494.694519,385.161926 
	C494.591553,386.484711 492.651886,388.743195 491.542084,388.751038 
	C464.068146,388.945099 436.592499,388.895325 409.117126,388.870117 
	C408.815857,388.869843 408.514771,388.621857 407.481812,388.167938 
	C407.481812,381.566132 407.431244,374.624329 407.567963,367.686249 
	C407.580292,367.062073 408.802856,366.461700 409.899384,365.823120 
z"/>
<path fill="#FC2C54" opacity="1.000000" stroke="none" 
	d="
M525.556702,243.862213 
	C533.655212,249.287369 530.776184,257.996552 532.710266,265.138855 
	C534.222778,270.724701 534.374695,276.771820 536.476013,282.081757 
	C539.079468,288.660400 536.899292,294.110626 534.572571,299.808167 
	C533.378296,302.732605 531.607056,305.473846 530.787354,308.485870 
	C529.701538,312.475677 527.011353,313.847626 523.443970,313.909180 
	C515.114136,314.052917 506.775909,314.114288 498.452362,313.851685 
	C496.941101,313.803986 495.483490,312.057922 494.120148,311.173187 
	C494.120361,311.170685 494.082825,311.663391 494.061798,312.437531 
	C494.078308,305.271942 494.078308,297.824921 494.078308,289.692139 
	C500.190094,289.692139 506.123169,289.473541 512.030945,289.765961 
	C516.248352,289.974731 517.480896,288.399384 517.387024,284.297302 
	C517.135376,273.308533 517.264343,262.310822 517.258972,251.316666 
	C517.255127,243.512711 517.267334,243.512711 525.556702,243.862213 
z"/>
<path fill="#03CBFA" opacity="1.000000" stroke="none" 
	d="
M361.000000,389.062927 
	C345.852570,389.060791 331.205170,389.060791 315.068848,389.060791 
	C316.189331,381.598694 317.148865,374.500366 318.466553,367.469147 
	C318.606598,366.721924 320.841248,365.906708 322.108215,365.900055 
	C342.093964,365.795410 362.080780,365.770691 382.065857,365.921234 
	C383.362732,365.931000 385.722321,367.461365 385.766296,368.372375 
	C386.086060,374.993500 385.938232,381.637238 385.938232,389.065063 
	C377.664917,389.065063 369.582458,389.065063 361.000000,389.062927 
z"/>
<path fill="#F9A42A" opacity="1.000000" stroke="none" 
	d="
M494.575775,504.676575 
	C491.923401,512.499146 494.945984,519.368347 502.199188,522.096558 
	C502.778687,522.314575 503.241150,522.843567 503.886169,523.545288 
	C483.366669,517.511902 466.721649,505.947083 458.376282,485.464722 
	C453.753784,474.119568 456.427063,462.606995 464.012817,452.979675 
	C470.357971,444.926788 479.033600,442.335327 489.404205,445.465637 
	C488.927277,445.930298 488.097534,446.043793 487.352356,446.357880 
	C486.971588,446.518372 486.742401,447.038483 486.468597,447.367371 
	C486.640381,447.756439 486.699799,448.232239 486.905334,448.307190 
	C493.999939,450.893616 493.874084,450.767944 488.477203,456.506104 
	C486.169067,458.960175 484.752319,461.977600 487.880310,465.174500 
	C488.584503,465.894196 488.650848,467.237976 488.601868,468.693329 
	C481.759033,468.612030 477.337708,472.120026 474.398865,477.129852 
	C471.460419,482.138885 473.740173,487.203918 477.363312,490.697662 
	C482.664673,495.809601 488.797394,500.059326 494.575775,504.676575 
z"/>
<path fill="#FCDD08" opacity="1.000000" stroke="none" 
	d="
M632.606018,418.111572 
	C632.674866,414.004639 634.581482,411.375488 638.139954,408.430267 
	C641.065063,406.009247 641.324585,399.825745 641.859802,395.204926 
	C642.447327,390.131958 641.849792,384.933594 642.033264,379.799316 
	C642.338928,371.245087 642.345337,362.627686 643.516968,354.181030 
	C644.034607,350.448975 646.581055,346.987976 645.080017,342.518890 
	C648.785217,350.573700 652.826660,358.883575 656.085938,367.489685 
	C660.226624,378.423187 664.176331,389.471130 667.364746,400.709045 
	C669.678894,408.865509 670.615784,417.410004 665.415039,426.066498 
	C656.286072,416.188507 645.126526,414.938477 632.606018,418.111572 
z"/>
<path fill="#03CBFA" opacity="1.000000" stroke="none" 
	d="
M372.987671,459.766541 
	C359.010284,459.740234 345.528717,459.598083 332.050995,459.766174 
	C328.348450,459.812317 326.491730,458.800262 326.321777,454.910675 
	C326.083344,449.452454 325.559967,444.006683 325.113159,437.940277 
	C327.119171,437.815735 328.691528,437.638580 330.264557,437.632629 
	C347.571899,437.567261 364.880493,437.620636 382.185852,437.405670 
	C385.695099,437.362091 386.918427,438.356201 386.765076,441.895599 
	C386.521118,447.526825 386.699921,453.176331 386.699921,459.767639 
	C382.313477,459.767639 377.899200,459.767639 372.987671,459.766541 
z"/>
<path fill="#03CBFA" opacity="1.000000" stroke="none" 
	d="
M349.002258,473.318573 
	C361.917114,473.321136 374.332520,473.321136 387.139038,473.321136 
	C387.139038,480.992157 387.139038,487.882172 387.139038,495.348602 
	C382.945068,495.348602 378.839386,495.347168 374.733704,495.348907 
	C363.260193,495.353790 351.784302,495.231964 340.314545,495.442291 
	C336.801270,495.506683 335.242432,494.282257 334.515839,490.915833 
	C333.307251,485.316162 331.711884,479.799957 330.038727,473.316010 
	C336.961182,473.316010 342.732025,473.316010 349.002258,473.318573 
z"/>
<path fill="#F9A42A" opacity="1.000000" stroke="none" 
	d="
M476.570587,577.816162 
	C476.687561,591.212219 476.627319,604.182129 476.816925,617.148376 
	C476.867981,620.642944 475.627258,621.916321 472.201538,621.823425 
	C466.386444,621.665710 460.556305,621.935120 454.750702,621.651794 
	C453.395050,621.585632 450.980591,620.042542 450.965454,619.146729 
	C450.725098,604.906494 450.796295,590.661011 450.796295,575.929077 
	C459.138550,575.929077 466.912018,575.896606 474.683929,575.992126 
	C475.290680,575.999573 475.886414,576.902039 476.570587,577.816162 
z"/>
<path fill="#FDB822" opacity="1.000000" stroke="none" 
	d="
M570.491699,399.834656 
	C565.923584,400.427155 560.886719,401.015564 555.575745,401.635986 
	C558.125854,403.296753 560.661865,405.130341 563.370544,406.657684 
	C565.758606,408.004242 566.345215,409.615845 564.966309,411.966797 
	C564.377930,412.969971 563.680664,413.936401 563.265320,415.009521 
	C560.729309,421.562897 562.363220,423.869598 569.352295,424.043121 
	C572.113281,424.111664 574.864014,424.594299 577.820190,425.199127 
	C558.732239,425.569183 539.443237,425.607178 520.154663,425.710236 
	C517.160522,425.726227 516.017761,424.409668 516.070312,421.474945 
	C516.171570,415.820892 516.250854,410.156311 516.010437,404.510071 
	C515.859314,400.961853 517.163940,399.956573 520.630798,400.003174 
	C534.602356,400.190918 548.577454,400.124329 562.551270,400.113678 
	C565.041870,400.111755 567.532410,399.929504 570.491699,399.834656 
M547.921753,401.078308 
	C547.406311,401.152954 546.890930,401.227631 546.375488,401.302277 
	C546.447083,401.539459 546.518677,401.776642 546.590271,402.013794 
	C547.177795,401.733002 547.765259,401.452179 547.921753,401.078308 
z"/>
<path fill="#FDB822" opacity="1.000000" stroke="none" 
	d="
M476.739380,672.564087 
	C475.785950,674.402649 474.887390,676.946777 473.874084,676.993286 
	C466.429199,677.335449 458.961365,677.178162 450.703400,677.178162 
	C450.703400,672.468018 450.704041,668.200378 450.703247,663.932739 
	C450.701721,655.439148 450.904694,646.938416 450.608429,638.455078 
	C450.466187,634.381409 452.043945,633.236816 455.785553,633.361023 
	C461.108582,633.537659 466.453125,633.581726 471.768616,633.303223 
	C475.872101,633.088318 476.880646,634.917908 476.826691,638.639404 
	C476.664978,649.795471 476.751526,660.955078 476.739380,672.564087 
z"/>
<path fill="#F64944" opacity="1.000000" stroke="none" 
	d="
M562.437805,290.482758 
	C565.471985,289.899078 568.950012,289.181763 572.450745,289.044189 
	C578.770935,288.795868 580.156738,287.832062 579.926514,281.421906 
	C579.488037,269.217957 578.687927,257.027039 578.010559,244.410065 
	C586.272156,242.987350 594.049438,244.814941 601.775757,248.488861 
	C605.112854,256.493134 605.075623,264.705414 605.488403,272.856476 
	C605.529724,273.672760 605.845032,274.471863 605.930176,275.289703 
	C607.218018,287.653595 606.014771,288.948364 593.717407,289.046082 
	C590.639038,289.070526 587.564209,289.542358 584.282227,290.102386 
	C577.015015,290.467621 569.953430,290.539032 562.437805,290.482758 
z"/>
<path fill="#FDE604" opacity="1.000000" stroke="none" 
	d="
M671.090698,524.238525 
	C665.140015,521.266602 665.195923,521.180542 667.510071,514.770081 
	C669.790710,508.452301 671.254517,502.156128 668.538757,495.378387 
	C667.492615,492.767426 667.780579,489.442261 668.084595,486.507111 
	C668.730408,480.271545 669.785217,474.078308 670.856384,467.509521 
	C671.651001,467.668762 672.261658,468.186218 673.063965,469.121460 
	C673.380066,469.712097 673.543884,469.830688 673.747009,469.895081 
	C673.747009,469.895081 674.014282,469.968964 674.069336,470.406555 
	C674.837585,471.490936 675.550720,472.137695 676.263855,472.784485 
	C676.263855,472.784485 676.179138,472.824188 676.286804,473.017883 
	C676.650574,473.436798 676.906738,473.662048 677.162842,473.887329 
	C677.162842,473.887329 677.085693,473.922333 677.213989,474.100769 
	C677.536621,474.558685 677.791016,474.763672 678.105469,474.894135 
	C684.686768,482.127228 691.308838,489.323853 697.832458,496.608643 
	C701.145020,500.307678 699.510620,504.164642 697.514832,507.668701 
	C694.051514,513.749451 688.135376,516.893250 682.034668,519.663147 
	C679.620850,520.759033 677.104919,521.629883 674.155396,522.583862 
	C673.355896,522.554993 673.147888,522.709839 673.051208,523.029175 
	C673.051208,523.029175 673.029724,523.039368 672.732300,523.080505 
	C671.989563,523.466736 671.544250,523.811829 671.098938,524.156860 
	C671.098938,524.156860 671.115967,524.218750 671.090698,524.238525 
z"/>
<path fill="#FDB822" opacity="1.000000" stroke="none" 
	d="
M494.859131,701.135986 
	C494.554047,699.582275 493.985809,698.028870 493.983521,696.474731 
	C493.950470,674.026245 494.098480,651.576965 493.925385,629.129944 
	C493.892609,624.876343 495.239380,623.694519 499.328949,623.952698 
	C504.794342,624.297668 510.303650,624.180664 515.783508,623.976746 
	C519.098206,623.853271 520.122314,625.197815 520.115540,628.351196 
	C520.065308,651.630981 520.091431,674.911011 520.184937,698.190613 
	C520.196167,700.985413 519.183105,702.080322 516.405518,702.014404 
	C509.429413,701.848999 502.449921,701.827698 495.642517,701.405212 
	C501.642944,701.042542 507.483856,700.794556 513.298584,701.080017 
	C517.578003,701.290039 519.184875,699.992432 519.107666,695.480347 
	C518.853882,680.659729 519.007263,665.832214 518.964294,651.007507 
	C518.960388,649.655029 518.670959,648.303345 518.514160,646.951294 
	C517.097412,657.621338 509.019226,662.084229 501.146332,666.419861 
	C496.644135,668.899109 494.710022,671.972107 494.916687,677.157715 
	C495.234711,685.137024 494.910767,693.141907 494.859131,701.135986 
z"/>
<path fill="#03CBFA" opacity="1.000000" stroke="none" 
	d="
M357.026428,509.483093 
	C367.454468,509.482269 377.387177,509.482269 387.967957,509.482269 
	C387.967957,516.553162 388.077362,522.991882 387.842712,529.418030 
	C387.809814,530.318604 386.102966,531.894897 385.148773,531.911865 
	C374.843994,532.095398 364.534332,532.067078 354.227234,531.970459 
	C353.231750,531.961182 351.656982,531.350647 351.344818,530.603821 
	C348.558228,523.937256 345.995026,517.177185 342.990845,509.483887 
	C348.331818,509.483887 352.431488,509.483887 357.026428,509.483093 
z"/>
<path fill="#B8196D" opacity="1.000000" stroke="none" 
	d="
M374.959839,315.102661 
	C363.242645,315.105835 352.018219,315.105835 339.680511,315.105835 
	C344.039764,305.545929 349.534027,298.625763 356.095245,292.520874 
	C356.892975,291.778625 358.625824,291.874725 359.926819,291.867798 
	C366.924744,291.830536 373.926514,292.020477 380.919830,291.845581 
	C384.242767,291.762451 385.344177,293.037476 385.228577,296.223328 
	C385.065582,300.716034 384.939240,305.239838 385.285522,309.712555 
	C385.610992,313.916016 384.079620,315.556732 379.947937,315.087097 
	C378.469055,314.918976 376.952118,315.085632 374.959839,315.102661 
z"/>
<path fill="#F64944" opacity="1.000000" stroke="none" 
	d="
M421.063812,557.864136 
	C421.053253,552.885437 421.124664,548.387695 420.999359,543.895447 
	C420.926788,541.293396 421.611511,539.803406 424.572235,539.834351 
	C433.229034,539.924866 441.892365,539.737305 450.539124,540.047729 
	C451.717255,540.090088 453.717072,542.293884 453.796997,543.591614 
	C454.164703,549.563782 454.183105,555.580933 453.842072,561.554199 
	C453.771851,562.784058 451.663086,564.862671 450.436005,564.905884 
	C441.955139,565.204590 433.457855,564.988220 424.967957,565.099182 
	C419.422028,565.171570 421.533722,561.071045 421.063812,557.864136 
z"/>
<path fill="#FC2C54" opacity="1.000000" stroke="none" 
	d="
M407.639313,470.916504 
	C416.939331,470.287476 426.038788,469.964355 435.139130,469.937592 
	C435.913849,469.935303 437.329407,471.886322 437.367371,472.967834 
	C437.583435,479.125397 437.637238,485.303070 437.318573,491.451721 
	C437.261078,492.561127 435.245911,494.437042 434.079620,494.480377 
	C426.424713,494.764862 418.754669,494.629272 411.089691,494.662262 
	C408.446045,494.673645 407.124542,493.629486 407.201202,490.779327 
	C407.375763,484.288971 407.370911,477.793793 407.639313,470.916504 
z"/>
<path fill="#B8196D" opacity="1.000000" stroke="none" 
	d="
M348.475769,343.840179 
	C348.556458,351.830261 348.556488,351.841156 340.926270,351.867859 
	C336.277557,351.884094 331.628662,351.872406 326.979980,351.850677 
	C323.895782,351.836243 322.740906,350.471893 323.824799,347.413422 
	C324.600220,345.225311 325.095642,342.934998 325.918610,340.767181 
	C331.908905,324.987915 328.540405,328.880646 344.389587,328.229889 
	C347.411560,328.105804 348.587219,329.535980 348.531403,332.410431 
	C348.460541,336.061615 348.486572,339.714722 348.475769,343.840179 
z"/>
<path fill="#B8196D" opacity="1.000000" stroke="none" 
	d="
M385.649414,346.635498 
	C385.951538,350.360199 384.769257,352.078491 381.177704,351.927246 
	C377.034485,351.752808 372.875580,351.820374 368.727600,351.934174 
	C365.831970,352.013519 364.433441,350.954834 364.522858,347.889160 
	C364.672943,342.745819 364.684296,337.595673 364.622437,332.449951 
	C364.586548,329.463348 365.965179,328.266388 368.853912,328.307373 
	C372.837463,328.363892 376.831665,328.438934 380.804932,328.215332 
	C384.198639,328.024384 385.672791,329.235779 385.565460,332.732330 
	C385.428009,337.209564 385.605347,341.696472 385.649414,346.635498 
z"/>
<path fill="#FED412" opacity="1.000000" stroke="none" 
	d="
M475.734375,690.589233 
	C475.461273,691.497864 474.518097,692.051392 474.524384,692.593994 
	C474.577911,697.222778 474.794098,701.849915 474.981537,706.476807 
	C475.108856,709.620483 473.607727,710.845520 470.485565,711.038879 
	C466.549011,711.282654 462.647247,712.370483 458.723022,712.413208 
	C456.719391,712.435120 454.699524,710.970337 452.342957,709.610107 
	C451.998108,704.634521 452.218109,700.211548 451.923462,695.823120 
	C451.705627,692.579163 453.038849,690.974487 455.969604,690.281799 
	C462.481232,690.264282 468.992828,690.246704 475.734375,690.589233 
z"/>
<path fill="#FED412" opacity="1.000000" stroke="none" 
	d="
M643.721436,434.031067 
	C645.608826,432.673828 647.519653,430.780609 649.140564,431.002808 
	C650.617004,431.205139 652.995605,433.792847 652.893738,435.175720 
	C651.686035,451.568848 650.093323,467.933685 648.555603,484.301636 
	C648.519287,484.688263 647.947449,485.024567 646.602661,486.527008 
	C644.474182,468.497498 641.520142,451.653046 643.721436,434.031067 
z"/>
<path fill="#FED412" opacity="1.000000" stroke="none" 
	d="
M476.339722,764.702881 
	C476.022156,740.671082 475.987701,716.330872 475.991882,691.528442 
	C476.261322,691.831665 476.693604,692.596985 476.693695,693.362366 
	C476.696045,717.039734 476.656158,740.717163 476.339722,764.702881 
z"/>
<path fill="#FECA1B" opacity="1.000000" stroke="none" 
	d="
M455.568298,690.181519 
	C453.038849,690.974487 451.705627,692.579163 451.923462,695.823120 
	C452.218109,700.211548 451.998108,704.634521 452.009033,709.507935 
	C451.638580,713.895691 451.258026,717.818298 450.526917,721.894104 
	C450.297424,712.968689 450.564758,703.888489 450.466614,694.812195 
	C450.428070,691.248291 451.294159,689.378235 455.568298,690.181519 
z"/>
<path fill="#FDB822" opacity="1.000000" stroke="none" 
	d="
M660.299744,465.482178 
	C660.753113,475.884644 659.591736,486.417786 654.954346,496.592896 
	C656.464722,486.454315 658.304077,476.154022 660.299744,465.482178 
z"/>
<path fill="#FDB822" opacity="1.000000" stroke="none" 
	d="
M637.766602,496.621521 
	C633.036072,494.688812 633.891846,489.822113 633.152527,485.876312 
	C632.066345,480.079956 631.626953,474.162354 630.921692,467.921509 
	C632.217346,474.506836 633.379517,481.493378 634.851074,488.414154 
	C635.424500,491.111206 636.694641,493.660126 637.766602,496.621521 
z"/>
<path fill="#FCDD08" opacity="1.000000" stroke="none" 
	d="
M627.080811,625.496582 
	C632.756348,625.198975 638.703491,625.154358 645.111694,625.133057 
	C639.607056,628.664612 633.482300,627.287109 627.080811,625.496582 
z"/>
<path fill="#FCDD08" opacity="1.000000" stroke="none" 
	d="
M643.926453,339.588074 
	C640.400757,339.838013 636.838318,339.770844 633.140381,339.354858 
	C634.487244,338.817596 635.969666,338.629089 637.746399,338.210815 
	C639.990417,338.411011 641.940125,338.841003 643.926453,339.588074 
z"/>
<path fill="#FDB822" opacity="1.000000" stroke="none" 
	d="
M614.560913,424.902924 
	C618.194641,424.937744 621.362793,425.008026 625.019165,425.127167 
	C617.328735,425.397522 609.150146,425.619049 600.519714,425.733276 
	C604.743713,425.396759 609.419495,425.167572 614.560913,424.902924 
z"/>
<path fill="#FDB822" opacity="1.000000" stroke="none" 
	d="
M650.523438,500.085876 
	C649.215759,500.673279 647.466431,501.303375 645.342773,501.926941 
	C643.046143,500.859192 641.123840,499.797974 639.117249,498.421143 
	C642.715942,498.779907 646.398804,499.454224 650.523438,500.085876 
z"/>
<path fill="#FDB822" opacity="1.000000" stroke="none" 
	d="
M663.412231,458.599304 
	C662.777100,460.103394 662.044739,461.348328 661.072205,462.783203 
	C660.959473,461.351929 661.086853,459.730743 661.214294,458.109528 
	C661.914551,458.186401 662.614746,458.263275 663.412231,458.599304 
z"/>
<path fill="#F9A42A" opacity="1.000000" stroke="none" 
	d="
M498.850647,449.714478 
	C497.144653,449.166687 495.236694,448.344452 493.143433,447.221008 
	C494.854950,447.759888 496.751831,448.599976 498.850647,449.714478 
z"/>
<path fill="#FCDD08" opacity="1.000000" stroke="none" 
	d="
M620.804688,623.429321 
	C622.490417,623.679749 624.442871,624.195618 626.623413,625.002075 
	C624.924805,624.760071 622.998169,624.227417 620.804688,623.429321 
z"/>
<path fill="#FCDD08" opacity="1.000000" stroke="none" 
	d="
M626.333984,424.166504 
	C626.865234,423.534210 627.648193,422.871521 628.755493,422.195862 
	C628.248352,422.833984 627.416992,423.485046 626.333984,424.166504 
z"/>
<path fill="#FDB822" opacity="1.000000" stroke="none" 
	d="
M557.974915,591.479858 
	C558.795654,591.592346 559.787598,591.967346 560.880005,592.671021 
	C560.035767,592.580566 559.090881,592.161499 557.974915,591.479858 
z"/>
<path fill="#FECA1B" opacity="1.000000" stroke="none" 
	d="
M447.981873,721.607422 
	C447.215027,721.389404 446.318420,720.887817 445.319885,720.075256 
	C446.096039,720.284119 446.974091,720.804016 447.981873,721.607422 
z"/>
<path fill="#FDB822" opacity="1.000000" stroke="none" 
	d="
M654.394531,496.848572 
	C654.264709,497.393585 653.882874,498.078094 653.179810,498.814545 
	C653.286560,498.240387 653.714600,497.614227 654.394531,496.848572 
z"/>
<path fill="#FCDD08" opacity="1.000000" stroke="none" 
	d="
M676.188232,472.500122 
	C675.550720,472.137695 674.837585,471.490936 674.080200,470.544800 
	C674.728149,470.902222 675.420410,471.559021 676.188232,472.500122 
z"/>
<path fill="#FDB822" opacity="1.000000" stroke="none" 
	d="
M668.047302,463.556458 
	C667.540466,463.338440 666.948669,462.836121 666.273438,462.041840 
	C666.780762,462.257324 667.371582,462.764740 668.047302,463.556458 
z"/>
<path fill="#FDB822" opacity="1.000000" stroke="none" 
	d="
M573.504150,398.701843 
	C573.074280,399.090820 572.315430,399.508240 571.209473,399.896729 
	C571.633240,399.488678 572.404236,399.109497 573.504150,398.701843 
z"/>
<path fill="#FDB822" opacity="1.000000" stroke="none" 
	d="
M556.095947,590.320007 
	C556.477600,590.294189 557.016174,590.522827 557.717407,591.005737 
	C557.337646,591.031372 556.795227,590.802917 556.095947,590.320007 
z"/>
<path fill="#FDB822" opacity="1.000000" stroke="none" 
	d="
M551.107056,587.308228 
	C551.488342,587.275574 552.029419,587.496765 552.744507,587.963257 
	C552.367981,587.993042 551.817444,587.777466 551.107056,587.308228 
z"/>
<path fill="#FDB822" opacity="1.000000" stroke="none" 
	d="
M561.173767,593.257935 
	C561.536072,593.227905 562.061951,593.440491 562.766602,593.879883 
	C562.409363,593.904663 561.873291,593.702576 561.173767,593.257935 
z"/>
<path fill="#FDB822" opacity="1.000000" stroke="none" 
	d="
M554.228516,589.233643 
	C554.584045,589.205811 555.094666,589.420654 555.782898,589.855713 
	C555.434875,589.876099 554.909302,589.676147 554.228516,589.233643 
z"/>
<path fill="#FDB822" opacity="1.000000" stroke="none" 
	d="
M665.196167,460.540436 
	C664.860046,460.458923 664.449463,460.113922 663.959534,459.498169 
	C664.294006,459.577240 664.707825,459.927094 665.196167,460.540436 
z"/>
<path fill="#FCDD08" opacity="1.000000" stroke="none" 
	d="
M644.973694,341.598938 
	C644.697998,341.448029 644.427368,341.035736 644.116455,340.375977 
	C644.376953,340.531525 644.677856,340.934540 644.973694,341.598938 
z"/>
<path fill="#FECA1B" opacity="1.000000" stroke="none" 
	d="
M449.681641,722.105164 
	C449.443695,722.195801 448.880585,722.240356 448.189148,722.072144 
	C448.492706,721.925903 448.924622,721.992493 449.681641,722.105164 
z"/>
<path fill="#FCDD08" opacity="1.000000" stroke="none" 
	d="
M671.391052,524.130127 
	C671.544250,523.811829 671.989563,523.466736 672.721924,523.086121 
	C672.566956,523.401550 672.125061,523.752502 671.391052,524.130127 
z"/>
<path fill="#FDB822" opacity="1.000000" stroke="none" 
	d="
M576.609741,396.839355 
	C576.473083,397.161652 576.052979,397.532867 575.348145,397.951874 
	C575.484375,397.629211 575.905334,397.258759 576.609741,396.839355 
z"/>
<path fill="#FDB822" opacity="1.000000" stroke="none" 
	d="
M652.623840,498.886810 
	C652.482422,499.202057 652.063232,499.570282 651.357056,499.966919 
	C651.495361,499.643494 651.920715,499.291656 652.623840,498.886810 
z"/>
<path fill="#FCDD08" opacity="1.000000" stroke="none" 
	d="
M630.318359,420.643372 
	C630.317139,420.318481 630.542847,419.879700 630.986694,419.307190 
	C630.984985,419.625488 630.765137,420.077484 630.318359,420.643372 
z"/>
<path fill="#F9A42A" opacity="1.000000" stroke="none" 
	d="
M492.390015,446.538177 
	C491.924591,446.637238 491.188477,446.462280 490.167358,446.023926 
	C490.628021,445.928436 491.373688,446.096313 492.390015,446.538177 
z"/>
<path fill="#FEC11D" opacity="1.000000" stroke="none" 
	d="
M573.748047,600.369263 
	C573.920654,600.274292 574.256470,600.420654 574.794067,600.755981 
	C574.634399,600.833496 574.272827,600.721985 573.748047,600.369263 
z"/>
<path fill="#FEC11D" opacity="1.000000" stroke="none" 
	d="
M575.582764,601.384705 
	C575.772522,601.281372 576.149414,601.441284 576.752930,601.808716 
	C576.576416,601.893555 576.173157,601.770813 575.582764,601.384705 
z"/>
<path fill="#FECA1B" opacity="1.000000" stroke="none" 
	d="
M445.124695,719.526917 
	C444.918793,719.625183 444.627472,719.473022 444.208984,719.106628 
	C444.400940,719.020447 444.720123,719.148438 445.124695,719.526917 
z"/>
<path fill="#FED412" opacity="1.000000" stroke="none" 
	d="
M475.265137,765.804749 
	C475.173401,765.521362 475.381714,765.335083 475.835114,765.129028 
	C475.862030,765.321350 475.690369,765.585571 475.265137,765.804749 
z"/>
<path fill="#FCDD08" opacity="1.000000" stroke="none" 
	d="
M673.739380,469.716797 
	C673.543884,469.830688 673.380066,469.712097 673.193604,469.401367 
	C673.404785,469.195679 673.604858,469.287384 673.739380,469.716797 
z"/>
<path fill="#FCDD08" opacity="1.000000" stroke="none" 
	d="
M581.026672,337.705536 
	C580.960144,337.820374 580.783142,337.819458 580.346863,337.835724 
	C580.286438,337.574005 580.562561,337.486298 581.026672,337.705536 
z"/>
<path fill="#FDB822" opacity="1.000000" stroke="none" 
	d="
M577.667419,395.991211 
	C577.704834,396.180542 577.482788,396.430542 577.026123,396.780762 
	C576.997009,396.604645 577.202454,396.328247 577.667419,395.991211 
z"/>
<path fill="#FDB822" opacity="1.000000" stroke="none" 
	d="
M574.713013,398.052246 
	C574.720398,398.249146 574.462524,398.455414 573.958313,398.713989 
	C573.957214,398.531433 574.202454,398.296539 574.713013,398.052246 
z"/>
<path fill="#FCDD08" opacity="1.000000" stroke="none" 
	d="
M631.434082,419.120178 
	C631.322388,418.883698 631.529358,418.628265 632.012634,418.296875 
	C632.048523,418.464417 631.869873,418.757874 631.434082,419.120178 
z"/>
<path fill="#FCDD08" opacity="1.000000" stroke="none" 
	d="
M629.338989,422.026123 
	C629.230286,421.841034 629.375488,421.616516 629.710083,421.291321 
	C629.930786,421.497711 629.828613,421.763031 629.338989,422.026123 
z"/>
<path fill="#FDB822" opacity="1.000000" stroke="none" 
	d="
M666.170044,461.551697 
	C665.967224,461.612549 665.686401,461.410980 665.297974,460.969299 
	C665.490845,460.915894 665.791443,461.102600 666.170044,461.551697 
z"/>
<path fill="#FDB822" opacity="1.000000" stroke="none" 
	d="
M669.010986,464.663330 
	C668.755798,464.783661 668.516052,464.580933 668.246704,464.085876 
	C668.424683,464.049377 668.694397,464.231628 669.010986,464.663330 
z"/>
<path fill="#FDB822" opacity="1.000000" stroke="none" 
	d="
M669.919678,465.656067 
	C669.670715,465.791412 669.438843,465.613068 669.177368,465.151001 
	C669.440735,464.954315 669.703674,465.112671 669.919678,465.656067 
z"/>
<path fill="#FDB822" opacity="1.000000" stroke="none" 
	d="
M552.913330,588.357788 
	C553.127197,588.199707 553.414917,588.351379 553.826050,588.757751 
	C553.665588,588.827576 553.344849,588.712585 552.913330,588.357788 
z"/>
<path fill="#FCDD08" opacity="1.000000" stroke="none" 
	d="
M677.118591,473.613708 
	C676.906738,473.662048 676.650574,473.436798 676.296387,472.972107 
	C676.490356,472.935120 676.782349,473.137604 677.118591,473.613708 
z"/>
<path fill="#FCDD08" opacity="1.000000" stroke="none" 
	d="
M678.044373,474.633667 
	C677.791016,474.763672 677.536621,474.558685 677.223877,474.059540 
	C677.398010,474.017670 677.690674,474.195435 678.044373,474.633667 
z"/>
<path fill="#FDB822" opacity="1.000000" stroke="none" 
	d="
M638.807129,497.745575 
	C638.597107,497.870026 638.388367,497.722290 638.144165,497.331451 
	C638.367249,497.150757 638.600464,497.279114 638.807129,497.745575 
z"/>
<path fill="#FCDD08" opacity="1.000000" stroke="none" 
	d="
M673.296509,523.025574 
	C673.147888,522.709839 673.355896,522.554993 673.797729,522.637085 
	C673.920288,522.709656 673.541809,523.021973 673.296509,523.025574 
z"/>
<path fill="#FDB822" opacity="1.000000" stroke="none" 
	d="
M546.757568,584.532227 
	C546.945618,584.433411 547.274719,584.581299 547.773926,584.944092 
	C547.595520,585.032227 547.247070,584.905579 546.757568,584.532227 
z"/>
<path fill="#FDB822" opacity="1.000000" stroke="none" 
	d="
M547.942505,585.313599 
	C548.147034,585.162964 548.422546,585.309753 548.821533,585.696167 
	C548.669250,585.762390 548.358704,585.654175 547.942505,585.313599 
z"/>
<path fill="#FDB822" opacity="1.000000" stroke="none" 
	d="
M549.628784,586.389648 
	C549.816467,586.296021 550.180603,586.464294 550.756714,586.848022 
	C550.580872,586.926208 550.193115,586.788940 549.628784,586.389648 
z"/>
<path fill="#060A0E" opacity="1.000000" stroke="none" 
	d="
M494.959839,504.708588 
	C488.797394,500.059326 482.664673,495.809601 477.363312,490.697662 
	C473.740173,487.203918 471.460419,482.138885 474.398865,477.129852 
	C477.337708,472.120026 481.759033,468.612030 488.608582,469.077759 
	C489.024261,469.063354 489.168976,469.254700 489.474121,469.454132 
	C490.198944,469.764557 490.618622,469.875549 491.038300,469.986572 
	C491.038300,469.986572 491.151794,470.205261 491.450317,470.441956 
	C492.153595,470.839386 492.558380,471.000122 492.963135,471.160858 
	C492.963135,471.160858 492.939575,471.077515 493.021759,471.359375 
	C493.743683,472.077454 494.383423,472.513702 495.023163,472.949921 
	C495.023163,472.949921 494.998993,472.998474 495.119995,473.270996 
	C495.799805,474.099579 496.358643,474.655579 496.917480,475.211578 
	C498.535736,478.795227 499.718658,482.257935 493.807495,483.717346 
	C495.991913,486.072937 498.029388,487.789368 499.438538,489.921112 
	C500.932251,492.180908 502.535736,494.750336 502.846283,497.334198 
	C503.603699,503.635376 501.979980,504.965851 494.959839,504.708588 
z"/>
<path fill="#F9A42A" opacity="1.000000" stroke="none" 
	d="
M496.878082,474.892456 
	C496.358643,474.655579 495.799805,474.099579 495.144775,473.260071 
	C495.645294,473.508850 496.242004,474.041077 496.878082,474.892456 
z"/>
<path fill="#F9A42A" opacity="1.000000" stroke="none" 
	d="
M494.941956,472.645996 
	C494.383423,472.513702 493.743683,472.077454 492.981079,471.374268 
	C493.525696,471.518890 494.193207,471.930511 494.941956,472.645996 
z"/>
<path fill="#F9A42A" opacity="1.000000" stroke="none" 
	d="
M490.798523,469.777435 
	C490.618622,469.875549 490.198944,469.764557 489.575378,469.389832 
	C489.767273,469.273499 490.163025,469.420929 490.798523,469.777435 
z"/>
<path fill="#F9A42A" opacity="1.000000" stroke="none" 
	d="
M492.751190,470.917358 
	C492.558380,471.000122 492.153595,470.839386 491.565735,470.398926 
	C491.768188,470.304077 492.153717,470.488953 492.751190,470.917358 
z"/>
<path fill="#FECA1B" opacity="1.000000" stroke="none" 
	d="
M548.137268,401.124847 
	C547.765259,401.452179 547.177795,401.733002 546.590271,402.013794 
	C546.518677,401.776642 546.447083,401.539459 546.375488,401.302277 
	C546.890930,401.227631 547.406311,401.152954 548.137268,401.124847 
z"/>
<path fill="#FECA1B" opacity="1.000000" stroke="none" 
	d="
M494.918457,701.070557 
	C494.910767,693.141907 495.234711,685.137024 494.916687,677.157715 
	C494.710022,671.972107 496.644135,668.899109 501.146332,666.419861 
	C509.019226,662.084229 517.097412,657.621338 518.514160,646.951294 
	C518.670959,648.303345 518.960388,649.655029 518.964294,651.007507 
	C519.007263,665.832214 518.853882,680.659729 519.107666,695.480347 
	C519.184875,699.992432 517.578003,701.290039 513.298584,701.080017 
	C507.483856,700.794556 501.642944,701.042542 495.337280,701.100464 
	C494.861298,701.139221 494.977753,701.005188 494.918457,701.070557 
z"/>
</svg>