<svg version="1.1" id="Layer_1" xmlns="http://www.w3.org/2000/svg" xmlns:xlink="http://www.w3.org/1999/xlink" x="0px" y="0px"
	 width="100%" viewBox="0 0 500 500" enable-background="new 0 0 500 500" xml:space="preserve">
<path fill="#000000" opacity="1.000000" stroke="none" 
	d="
M342.000000,501.000000 
	C228.000031,501.000000 114.500053,501.000000 1.000061,501.000000 
	C1.000041,334.333405 1.000041,167.666794 1.000020,1.000150 
	C167.666565,1.000100 334.333130,1.000100 500.999756,1.000050 
	C500.999847,167.666519 500.999847,334.333038 500.999939,500.999786 
	C448.166656,501.000000 395.333344,501.000000 342.000000,501.000000 
M328.013153,257.009003 
	C328.013153,257.009003 328.010986,257.085266 328.554779,256.949219 
	C328.744781,256.639679 328.934753,256.330170 329.026947,256.026978 
	C329.026947,256.026978 329.036530,256.124481 329.815887,256.048737 
	C332.571625,254.716537 335.327393,253.384323 338.015320,252.027954 
	C338.015320,252.027954 338.037689,252.096405 338.747040,252.031876 
	C339.198914,251.366623 339.650757,250.701370 340.034119,250.018311 
	C340.034119,250.018311 340.050659,250.087097 340.735046,249.826294 
	C343.899780,244.177994 343.399597,242.291473 337.866180,239.367874 
	C337.194366,238.604385 336.522552,237.840912 336.018646,236.368469 
	C333.701752,233.877136 331.384827,231.385803 329.042389,228.967285 
	C329.042389,228.967285 329.115875,228.943756 329.037598,228.213898 
	C327.395294,226.341431 325.752960,224.468964 323.703003,222.131714 
	C323.538513,223.885513 323.386627,225.505234 323.092651,227.669952 
	C323.072815,228.043991 323.053009,228.418015 322.303345,229.219009 
	C321.859985,232.382675 321.505890,235.562042 320.953308,238.706512 
	C320.015045,244.045670 318.793213,244.726517 312.729340,242.956970 
	C311.820038,241.469437 310.512878,240.087585 310.083862,238.472488 
	C309.177338,235.059708 308.729828,231.524994 308.771820,227.678848 
	C307.876160,225.102631 306.980499,222.526413 305.931763,219.457703 
	C305.642212,219.298508 305.352661,219.139313 305.038574,218.961456 
	C305.038574,218.961456 305.074982,218.961624 304.625519,218.207169 
	C294.417480,218.110153 284.209412,218.013123 274.015076,217.982010 
	C274.015076,217.982010 274.072357,217.946655 273.662506,217.183823 
	C269.761322,217.443680 265.860138,217.703537 261.998352,218.000549 
	C261.998352,218.000549 261.978577,217.950211 261.413879,218.131470 
	C261.338287,218.492966 261.262695,218.854462 261.037720,219.514175 
	C261.037720,219.514175 261.005432,219.846146 260.515411,220.030273 
	C260.399689,220.324417 260.283936,220.618546 259.885681,221.603134 
	C255.774399,225.040070 251.927689,224.870911 247.230453,222.049347 
	C243.671158,219.911346 239.134171,219.400940 234.246246,218.032471 
	C224.320389,221.554733 221.364471,225.155319 223.272415,235.630524 
	C224.801270,244.024399 230.969543,249.729309 239.236572,253.723236 
	C241.153015,254.507660 243.069473,255.292099 244.994202,256.011597 
	C244.994202,256.011597 244.938660,256.046265 245.278610,256.729523 
	C246.544998,256.756775 247.811401,256.784027 249.448959,256.956940 
	C249.448959,256.956940 249.846695,256.984894 250.066254,257.524414 
	C250.384964,257.731995 250.703690,257.939575 251.057037,258.547272 
	C251.057037,258.547272 251.207260,258.919708 251.051483,259.787537 
	C251.373489,263.668121 251.592529,267.562042 252.092056,271.419647 
	C252.212387,272.348907 253.262085,273.157806 254.013931,274.716797 
	C258.678009,278.753265 263.342102,282.789703 268.723236,286.985657 
	C272.800842,289.357422 276.878418,291.729187 281.266846,294.732391 
	C285.354645,296.762543 289.442474,298.792694 293.567230,300.797821 
	C293.567230,300.797821 293.562653,300.838074 293.932678,301.363434 
	C295.272369,301.949615 296.612091,302.535828 298.325439,303.789062 
	C300.538879,304.228455 302.752289,304.667847 305.342285,305.787384 
	C314.288757,309.428833 320.784760,305.152435 321.097107,295.794861 
	C321.228302,291.865204 322.378754,287.969574 323.015747,284.022400 
	C323.015747,284.022400 323.044312,284.077148 323.545715,283.920258 
	C323.633270,283.618378 323.720856,283.316528 324.094421,282.398041 
	C328.048096,279.799042 324.331024,277.215118 324.061462,274.443115 
	C327.211914,271.375488 331.369537,268.461700 328.020508,262.384674 
	C327.690125,261.865173 327.359741,261.345642 327.020813,260.552795 
	C327.020813,260.552795 326.975464,260.283081 327.571960,260.005127 
	C327.366364,259.558472 327.160736,259.111816 327.000488,258.488708 
	C327.000488,258.488708 326.963440,258.310303 327.503113,258.024658 
	C327.698547,257.687317 327.893982,257.349945 328.013153,257.009003 
M233.045303,137.035782 
	C233.045303,137.035782 233.070541,136.969116 233.558044,136.855804 
	C233.640594,136.559769 233.723145,136.263718 233.936081,135.317703 
	C234.020889,134.886383 234.105698,134.455078 234.844696,133.564148 
	C234.239578,130.732147 233.634476,127.900154 233.000320,124.982071 
	C233.000320,124.982071 232.911240,125.000038 232.801575,124.632698 
	C232.550171,124.752121 232.298752,124.871544 231.357529,125.050629 
	C230.898056,125.091866 230.438583,125.133102 229.066177,124.976982 
	C220.406784,124.980812 211.736221,124.731583 203.093445,125.112396 
	C199.611664,125.265816 196.115982,126.587334 192.764053,127.767509 
	C189.700424,128.846176 188.927216,131.011490 189.921402,134.376373 
	C191.127808,138.459534 194.449203,137.764145 196.978943,137.844330 
	C206.791534,138.155334 216.618439,138.056168 226.439499,138.005783 
	C227.653259,137.999573 228.863831,137.369080 230.701645,136.976990 
	C231.118393,137.006226 231.535126,137.035461 232.117264,137.498856 
	C232.403488,137.349915 232.689697,137.200974 233.045303,137.035782 
M218.985550,369.012665 
	C218.985550,369.012665 218.905685,369.016479 219.048477,369.556091 
	C219.360764,369.732452 219.673050,369.908813 219.988541,370.012054 
	C219.988541,370.012054 219.915344,370.010254 220.018097,370.511383 
	C220.427338,370.757538 220.836563,371.003662 221.229111,371.035126 
	C221.229111,371.035126 221.039215,371.136658 221.220352,371.696960 
	C221.788956,371.821198 222.357574,371.945404 223.001114,372.040588 
	C223.001114,372.040588 222.924301,372.050720 223.067688,372.552887 
	C223.360580,372.713928 223.653473,372.874969 223.965927,373.053284 
	C223.965927,373.053284 223.976959,373.076904 224.242844,373.769409 
	C226.007812,374.469574 227.831558,375.828094 229.520569,375.677307 
	C231.083832,375.537750 233.761703,373.817383 233.791367,372.734131 
	C234.099716,361.470154 234.030319,350.193207 233.836075,338.923828 
	C233.822861,338.157196 231.918320,336.734497 230.968994,336.795410 
	C227.428391,337.022430 223.919312,337.741028 219.840240,338.359863 
	C219.545486,342.864563 219.249298,347.391418 218.263763,351.768188 
	C212.555466,347.831177 206.847168,343.894196 200.655243,339.216431 
	C191.758896,339.198090 182.862549,339.179749 173.609421,339.049500 
	C173.609421,339.049500 173.235504,339.053070 173.003906,338.530731 
	C172.650696,338.672729 172.297485,338.814758 171.985550,339.005524 
	C171.985550,339.005524 171.964386,338.946045 171.183228,339.337402 
	C171.183228,342.756866 171.183228,346.176331 171.183228,349.863678 
	C176.905899,349.863678 182.472626,349.863678 188.783905,349.992218 
	C195.239426,354.286499 201.694946,358.580780 208.544983,363.051788 
	C208.544983,363.051788 208.965576,363.151733 208.965164,363.052094 
	C208.965164,363.052094 208.865646,363.057709 209.151184,363.722992 
	C210.852280,364.426331 212.553375,365.129639 214.540512,365.972900 
	C214.540512,365.972900 214.854782,366.024384 214.981339,366.774811 
	C215.977112,367.222748 216.972885,367.670685 217.976898,368.024017 
	C217.976898,368.024017 217.882095,368.018585 218.045029,368.556427 
	C218.359268,368.735138 218.673508,368.913849 218.985550,369.012665 
M320.057739,176.967972 
	C320.057739,176.967972 320.150726,176.973480 320.051331,176.222397 
	C319.381958,174.786346 318.712616,173.350311 318.025787,171.981110 
	C318.025787,171.981110 318.094299,171.972275 318.036835,171.210846 
	C317.105774,169.046387 316.174683,166.881927 315.367798,165.006088 
	C305.357117,165.006088 295.661682,164.929276 285.970367,165.093903 
	C284.611420,165.116974 283.272583,166.323456 281.987671,166.994751 
	C281.987671,166.994751 281.969818,166.932800 281.244476,167.329132 
	C281.496704,169.933411 281.748901,172.537674 282.315460,175.793671 
	C283.275269,179.194885 284.235107,182.596115 285.041779,186.782303 
	C284.090118,193.853683 282.227661,195.786972 275.052246,196.031372 
	C270.340210,196.082672 265.628174,196.133972 260.027954,196.046844 
	C257.439545,196.046844 254.851120,196.046844 252.395660,196.046844 
	C252.395660,200.734940 252.395660,204.787613 252.395660,208.987915 
	C269.903442,208.987915 287.042175,209.047638 304.178345,208.867569 
	C305.463837,208.854080 306.731354,207.128006 308.704437,205.750061 
	C309.324219,205.170990 310.026062,204.026947 310.550659,204.103149 
	C314.398071,204.661957 318.209961,205.465134 322.291351,206.789139 
	C323.552673,207.663010 324.814026,208.536865 326.226257,209.515274 
	C328.434662,202.995697 328.030701,197.287216 324.983063,191.387680 
	C324.983063,191.387680 324.847290,191.001633 324.985962,190.367310 
	C324.673309,189.879227 324.360657,189.391129 324.034210,188.973038 
	C324.034210,188.973038 324.103424,188.955734 324.010376,188.162766 
	C323.359558,185.741119 322.708771,183.319458 322.051514,180.969818 
	C322.051514,180.969818 322.123596,180.964127 322.044373,180.251526 
	C321.385834,179.126160 320.727295,178.000809 320.057739,176.967972 
M221.339554,331.768372 
	C223.559738,331.784668 225.779938,331.800964 228.709229,331.976562 
	C229.428619,331.938171 230.148026,331.899780 231.533020,331.987091 
	C232.040207,331.673309 232.547379,331.359528 233.000763,330.999695 
	C233.000763,330.999695 233.048523,331.049805 233.814240,330.623077 
	C233.814240,323.527954 233.814240,316.432831 233.814240,308.618622 
	C229.232574,309.103607 225.100525,309.540985 221.000153,310.000000 
	C221.000153,310.000000 220.977509,309.968811 220.229279,310.414490 
	C219.994522,317.204681 219.754898,323.994751 219.584900,330.786560 
	C219.582932,330.865234 220.482605,330.966461 221.002792,331.005066 
	C221.002792,331.005066 220.951065,331.040741 221.339554,331.768372 
M283.068970,119.080719 
	C275.033447,119.131676 266.997955,119.182632 258.313904,119.107063 
	C257.877686,119.150215 257.441498,119.193367 256.261292,119.064049 
	C253.963531,118.949387 252.388275,118.877388 252.700562,122.356056 
	C253.165192,127.532173 252.740524,132.802948 252.446777,138.019516 
	C252.389664,139.033936 251.394684,140.501633 250.487747,140.841888 
	C249.171585,141.335663 247.459442,140.695465 246.066147,141.080933 
	C244.123611,141.618347 240.888611,142.434631 240.720337,143.520950 
	C240.181229,147.001297 240.747360,150.665588 241.069305,154.242508 
	C241.095184,154.530106 242.512772,154.878632 243.285767,154.883896 
	C250.765930,154.934875 258.248444,155.016464 265.726135,154.873047 
	C268.716370,154.815674 268.801025,154.416290 267.945282,150.326614 
	C267.883057,149.895340 267.820831,149.464050 267.911072,148.183884 
	C267.323212,144.158188 268.975616,142.375809 273.084991,142.900330 
	C274.028870,143.020798 275.015503,142.806244 276.676910,142.878647 
	C277.144836,142.841293 277.612762,142.803940 278.947510,142.935776 
	C281.594604,142.888763 284.241669,142.841766 287.716827,142.932053 
	C288.831238,142.881866 289.945618,142.831680 291.980133,142.923019 
	C301.885132,142.923019 311.790100,142.923019 322.465424,142.923019 
	C321.701935,149.231903 321.023682,154.836533 320.233368,161.367050 
	C322.391296,160.152328 323.927094,159.816177 324.481964,158.891434 
	C328.714905,151.836899 330.423553,144.709915 326.833191,136.502335 
	C322.171570,125.845856 312.936462,121.630020 302.701691,117.290367 
	C302.701691,119.795166 302.701691,121.851448 302.701691,124.370689 
	C298.852295,122.892960 295.431030,121.579590 291.498230,120.073082 
	C291.322601,120.024864 291.147003,119.976646 290.549713,119.250130 
	C288.363831,119.248978 286.177917,119.247818 283.068970,119.080719 
M153.943588,207.060272 
	C153.943588,207.060272 154.045792,207.063065 154.479630,207.804214 
	C171.444305,207.848785 188.408966,207.906418 205.373627,207.899719 
	C206.226791,207.899384 207.079727,207.342728 208.664978,206.608444 
	C208.754776,204.133743 209.170517,201.607864 208.793427,199.206482 
	C208.611710,198.049316 206.945755,196.240631 205.935837,196.229858 
	C188.734100,196.045898 171.529877,196.097916 154.213943,196.097916 
	C154.103043,198.304626 154.012711,200.102264 153.229630,202.203934 
	C153.466217,203.788651 153.702789,205.373383 153.943588,207.060272 
M314.803955,211.786331 
	C314.404816,215.152405 313.675842,218.521225 313.703674,221.883759 
	C313.729187,224.963669 314.862000,228.024231 314.996216,231.115494 
	C315.304077,238.207169 315.177673,238.212662 318.095947,239.159409 
	C318.095947,236.395905 318.095947,233.741562 318.810883,230.640457 
	C319.213104,225.106628 319.669617,219.575790 319.976746,214.036697 
	C320.047394,212.762268 319.605164,211.459381 319.398987,210.169601 
	C318.078583,210.523529 316.758148,210.877441 314.803955,211.786331 
M170.000153,255.001114 
	C170.000153,255.001114 169.964218,255.042389 169.786835,255.693573 
	C170.341385,258.535950 170.820175,261.609772 174.594406,261.653137 
	C177.516586,261.686768 180.442230,261.046844 183.370377,261.007477 
	C191.386902,260.899719 192.036102,260.182281 190.925797,252.005951 
	C190.575760,249.428299 189.643005,247.810745 186.545853,247.976776 
	C182.217636,248.208786 177.857803,247.869034 173.532257,248.124710 
	C171.716751,248.232040 169.954315,249.237137 168.167755,249.834091 
	C168.763855,251.567490 169.359970,253.300873 170.000153,255.001114 
M189.734497,190.556961 
	C189.771667,187.715561 189.808838,184.874176 189.992691,181.231827 
	C189.961884,178.075119 187.782745,177.977951 185.494385,178.115463 
	C181.063873,178.381699 176.636002,178.909271 172.206558,178.914337 
	C167.937042,178.919220 163.660675,178.148621 159.400558,178.254059 
	C157.955139,178.289825 155.516678,179.778793 155.320496,180.913040 
	C154.732834,184.310638 154.997574,187.861664 155.059006,191.350525 
	C155.062653,191.557755 156.216599,191.947754 156.813339,191.909622 
	C161.880249,191.585953 166.942062,191.182648 172.924789,190.963974 
	C177.607285,190.905502 182.289795,190.847031 187.619507,190.935608 
	C188.053955,190.878326 188.488403,190.821060 189.734497,190.556961 
M241.960358,185.614777 
	C241.960358,183.257553 241.960358,180.900314 241.960358,178.049042 
	C240.286179,178.049042 238.677139,178.011749 237.070282,178.055023 
	C225.546387,178.365311 214.023346,178.708817 202.498962,178.998779 
	C200.274918,179.054733 197.730225,178.831558 198.118118,182.087997 
	C198.494904,185.251205 196.085388,189.949524 201.445892,190.851883 
	C205.167831,191.478394 209.082779,190.952911 212.911484,190.951614 
	C222.475540,190.948364 232.039581,190.950546 241.956024,190.950546 
	C241.956024,189.113434 241.956024,187.816223 241.960358,185.614777 
M189.887314,241.283127 
	C189.887314,238.012329 189.887314,234.741531 189.887314,230.136337 
	C182.006210,230.136337 174.291870,229.978058 166.592712,230.250046 
	C164.719452,230.316223 162.896164,231.797058 161.049911,232.627426 
	C162.684052,236.072922 163.993942,242.241943 166.009705,242.481903 
	C173.804031,243.409836 181.823456,242.447037 189.887314,241.283127 
M189.927521,221.641754 
	C190.255417,220.218292 191.184357,218.577499 190.767090,217.423477 
	C190.175461,215.787186 188.602615,213.287979 187.430496,213.277710 
	C180.041946,213.212952 172.649139,213.756714 165.255753,214.049423 
	C163.055756,214.136520 160.849396,214.062881 158.598587,214.062881 
	C158.793747,216.808365 158.995148,218.529816 159.023865,220.254150 
	C159.109329,225.384659 163.022446,228.125977 167.856812,226.546463 
	C170.091919,225.816177 172.426193,225.139618 174.751068,224.989548 
	C178.719925,224.733337 182.729156,225.082886 186.694077,224.797745 
	C187.822174,224.716644 188.855621,223.319778 189.927521,221.641754 
M222.883453,281.058167 
	C221.939163,282.127838 220.222900,283.166107 220.177872,284.272369 
	C219.917252,290.678040 220.050583,297.099792 220.050583,303.434814 
	C223.643906,303.949341 226.811325,304.618530 230.004990,304.785156 
	C232.171204,304.898224 234.186996,304.265717 234.028580,301.213043 
	C233.857239,297.911346 234.025314,294.593445 233.984940,291.283325 
	C233.839218,279.332977 235.628830,281.163544 222.883453,281.058167 
M180.662888,142.078003 
	C172.949951,142.159225 167.731476,146.878311 166.850876,154.579407 
	C174.107697,154.579407 181.364517,154.579407 189.050034,154.579407 
	C189.050034,150.371902 189.050034,146.519821 189.050034,142.083542 
	C186.163742,142.083542 183.869873,142.083542 180.662888,142.078003 
M205.110550,265.992462 
	C205.094940,268.651031 205.192703,271.316345 205.034912,273.966461 
	C204.839066,277.255249 206.809250,277.852386 209.388641,277.682556 
	C212.149445,277.500854 214.945419,277.385406 217.639786,276.825745 
	C219.463516,276.446960 222.652405,275.294617 222.626114,274.584778 
	C222.488098,270.858765 225.239609,265.283264 220.730103,263.806152 
	C215.973877,262.248199 210.074219,261.219666 205.110550,265.992462 
M199.078476,237.012039 
	C198.996582,238.412933 198.914688,239.813843 198.811096,241.586090 
	C204.275772,241.586090 209.453033,241.586090 214.956863,241.586090 
	C214.956863,238.318390 215.222092,235.315125 214.829880,232.400330 
	C214.666748,231.187927 213.175827,229.293488 212.160583,229.206635 
	C207.938171,228.845367 203.666916,229.054703 199.070633,229.054703 
	C199.070633,231.874954 199.070633,234.007324 199.078476,237.012039 
M164.532776,172.959808 
	C166.479752,172.959808 168.426727,172.959808 170.494263,172.959808 
	C170.494263,168.229706 170.494263,164.066376 170.494263,159.882599 
	C160.564850,160.630066 157.327759,164.237930 158.787445,172.961914 
	C160.341980,172.961914 161.975800,172.961914 164.532776,172.959808 
M178.127182,161.917618 
	C177.886658,173.954666 177.887177,173.958832 187.966629,172.708160 
	C188.230438,172.675415 188.451782,172.300323 188.614883,172.154602 
	C188.614883,167.858337 188.614883,163.641220 188.614883,159.010880 
	C184.913849,159.743301 181.623291,160.394485 178.127182,161.917618 
M241.002350,315.525696 
	C241.002350,324.927338 241.002350,334.328979 241.002350,343.686646 
	C245.983215,343.686646 250.367584,343.686646 254.699677,343.686646 
	C254.699677,330.665558 254.699677,317.967377 254.699677,305.315002 
	C250.001343,305.315002 245.616837,305.315002 241.003662,305.315002 
	C241.003662,308.598419 241.003662,311.567902 241.002350,315.525696 
z"/>
<path fill="#FEC91C" opacity="1.000000" stroke="none" 
	d="
M293.530273,300.822876 
	C289.442474,298.792694 285.354645,296.762543 281.052307,294.033905 
	C280.235321,290.812714 279.162048,288.295197 279.134247,285.766174 
	C279.085449,281.325195 279.729858,276.880310 279.989655,272.431519 
	C280.663727,260.888397 281.401184,249.347031 281.881073,237.795303 
	C282.116974,232.116898 283.137665,225.984665 276.374451,222.653015 
	C275.819946,222.379852 276.110931,220.390396 276.473145,219.157700 
	C281.634613,219.183044 286.332001,219.249115 291.051178,219.683563 
	C293.317596,221.501770 295.562225,222.951599 297.786255,224.388123 
	C297.556061,227.341919 297.065430,230.908081 297.038208,234.477753 
	C296.940704,247.281418 297.050720,260.086548 296.980347,272.890564 
	C296.940399,280.161469 298.650635,287.817078 292.354858,293.617889 
	C296.174683,296.414948 296.174683,296.414948 293.530273,300.822876 
z"/>
<path fill="#FDB922" opacity="1.000000" stroke="none" 
	d="
M261.005432,219.846146 
	C261.005432,219.846146 261.037720,219.514175 261.300293,219.189636 
	C261.701447,218.560135 261.839996,218.255173 261.978577,217.950211 
	C261.978577,217.950211 261.998352,218.000549 262.397766,218.020782 
	C264.200287,218.059616 265.603333,218.078232 266.890747,218.455048 
	C266.193665,220.158875 265.105499,221.506378 265.110413,222.849869 
	C265.152374,234.319839 265.847443,245.807190 265.392334,257.251373 
	C265.144409,263.484955 266.684753,270.096375 262.937683,276.103851 
	C262.266296,277.180237 263.953461,279.900909 264.836578,281.724457 
	C265.704407,283.516418 266.934845,285.132751 268.006195,286.826172 
	C263.342102,282.789703 258.678009,278.753265 253.970505,273.919250 
	C253.020477,268.387726 252.113861,263.653717 251.207260,258.919708 
	C251.207260,258.919708 251.057037,258.547272 250.907730,258.094604 
	C250.454514,257.422913 250.150604,257.203888 249.846695,256.984894 
	C249.846695,256.984894 249.448959,256.956940 248.960632,256.686279 
	C247.294434,256.292511 246.116547,256.169403 244.938660,256.046265 
	C244.938660,256.046265 244.994202,256.011597 244.860687,255.750320 
	C243.499390,254.679916 242.271591,253.870804 240.828735,252.794891 
	C238.461670,250.425171 238.884048,249.054337 241.695557,248.043015 
	C242.876053,247.618362 243.862091,246.653107 244.953918,245.958771 
	C244.971283,245.983917 244.912018,245.968689 245.195190,245.820496 
	C247.713013,241.623978 245.003693,238.837372 243.002396,235.672638 
	C243.026428,235.469101 243.175034,235.087067 243.449478,234.986679 
	C243.136887,233.944092 242.549850,233.001892 241.962433,232.042313 
	C241.962082,232.024933 241.924576,232.027557 241.925400,231.652405 
	C241.245667,230.460175 240.651428,229.036911 239.870361,228.925690 
	C235.261963,228.269501 234.385361,225.624390 235.307922,221.581116 
	C235.550247,220.519089 235.141830,219.308563 235.032272,218.166245 
	C239.134171,219.400940 243.671158,219.911346 247.230453,222.049347 
	C251.927689,224.870911 255.774399,225.040070 260.202881,221.112228 
	C260.734070,220.395630 260.895874,220.137238 261.005432,219.846146 
z"/>
<path fill="#FEC11E" opacity="1.000000" stroke="none" 
	d="
M268.364716,286.905914 
	C266.934845,285.132751 265.704407,283.516418 264.836578,281.724457 
	C263.953461,279.900909 262.266296,277.180237 262.937683,276.103851 
	C266.684753,270.096375 265.144409,263.484955 265.392334,257.251373 
	C265.847443,245.807190 265.152374,234.319839 265.110413,222.849869 
	C265.105499,221.506378 266.193665,220.158875 267.331512,218.430008 
	C269.949402,218.013412 272.010864,217.980026 274.072357,217.946655 
	C274.072357,217.946655 274.015076,217.982010 274.188599,218.196167 
	C274.911102,218.673004 275.460083,218.935699 276.009064,219.198410 
	C276.110931,220.390396 275.819946,222.379852 276.374451,222.653015 
	C283.137665,225.984665 282.116974,232.116898 281.881073,237.795303 
	C281.401184,249.347031 280.663727,260.888397 279.989655,272.431519 
	C279.729858,276.880310 279.085449,281.325195 279.134247,285.766174 
	C279.162048,288.295197 280.235321,290.812714 280.896912,293.718201 
	C276.878418,291.729187 272.800842,289.357422 268.364716,286.905914 
z"/>
<path fill="#FED114" opacity="1.000000" stroke="none" 
	d="
M293.548767,300.810364 
	C296.174683,296.414948 296.174683,296.414948 292.354858,293.617889 
	C298.650635,287.817078 296.940399,280.161469 296.980347,272.890564 
	C297.050720,260.086548 296.940704,247.281418 297.038208,234.477753 
	C297.065430,230.908081 297.556061,227.341919 297.786255,224.388123 
	C295.562225,222.951599 293.317596,221.501770 291.479523,219.616623 
	C293.616791,219.180634 295.347473,219.179947 297.316315,219.361786 
	C298.672394,219.429474 299.790344,219.314636 301.324951,219.174286 
	C302.852753,219.086380 303.963867,219.024002 305.074982,218.961624 
	C305.074982,218.961624 305.038574,218.961456 305.179382,219.173523 
	C305.528168,219.637344 305.783051,219.825546 306.084839,219.950211 
	C306.980499,222.526413 307.876160,225.102631 308.120667,227.734390 
	C303.932129,227.108551 305.173126,229.634644 305.296814,231.190521 
	C305.542542,234.282257 306.834320,237.568817 306.144531,240.397018 
	C304.850769,245.701935 303.635895,250.369995 310.153961,252.950394 
	C310.330414,253.020233 310.325165,253.549088 310.404633,253.863907 
	C309.960571,253.949051 309.516479,254.034180 309.072388,254.119324 
	C309.367523,256.883362 309.801270,259.640686 309.934631,262.412537 
	C310.632202,276.912384 309.687286,291.232819 304.965729,305.107269 
	C302.752289,304.667847 300.538879,304.228455 298.077820,303.077148 
	C296.407715,301.856201 294.985199,301.347137 293.562653,300.838074 
	C293.562653,300.838074 293.567230,300.797821 293.548767,300.810364 
M304.404785,292.221222 
	C304.233337,292.014099 304.061859,291.806976 303.890411,291.599854 
	C303.779449,291.703125 303.668488,291.806396 303.557556,291.909668 
	C303.753815,292.094055 303.950104,292.278412 304.404785,292.221222 
z"/>
<path fill="#FDE707" opacity="1.000000" stroke="none" 
	d="
M173.235504,339.053070 
	C173.235504,339.053070 173.609421,339.049500 174.152573,339.299011 
	C183.510101,339.684753 192.324493,339.820953 201.138855,339.957214 
	C206.847168,343.894196 212.555466,347.831177 218.693146,352.137146 
	C220.010223,352.256226 221.502975,352.209137 221.667938,351.716980 
	C222.098007,350.433838 221.946243,348.955688 222.022293,347.629669 
	C225.393372,347.629669 228.310257,347.629669 232.022598,347.629669 
	C232.022598,353.437317 232.023483,359.203400 232.022385,364.969452 
	C232.020737,373.583069 232.020142,373.583069 223.976959,373.076904 
	C223.976959,373.076904 223.965927,373.053284 223.834671,372.834290 
	C223.496033,372.354889 223.236328,372.166687 222.924301,372.050720 
	C222.924301,372.050720 223.001114,372.040588 222.852768,371.740417 
	C222.149353,371.339050 221.594284,371.237854 221.039215,371.136658 
	C221.039215,371.136658 221.229111,371.035126 220.976379,370.754822 
	C220.454208,370.319794 220.184769,370.165039 219.915344,370.010254 
	C219.915344,370.010254 219.988541,370.012054 219.880798,369.804871 
	C219.483932,369.403961 219.194809,369.210205 218.905685,369.016479 
	C218.905685,369.016479 218.985550,369.012665 218.870392,368.811462 
	C218.464188,368.413055 218.173141,368.215820 217.882080,368.018616 
	C217.882095,368.018585 217.976898,368.024017 217.880371,367.739319 
	C216.807495,366.977875 215.831131,366.501129 214.854782,366.024384 
	C214.854782,366.024384 214.540512,365.972900 214.230621,365.593079 
	C212.235687,364.494751 210.550674,363.776245 208.865646,363.057709 
	C208.865646,363.057709 208.965164,363.052094 208.923706,362.952698 
	C208.632904,362.582947 208.388977,362.590210 208.150467,362.875061 
	C201.694946,358.580780 195.239426,354.286499 188.068481,349.690125 
	C185.551437,349.253662 183.751572,349.036224 181.947922,348.998566 
	C170.693771,348.763702 172.000275,350.563171 171.964386,338.946045 
	C171.964386,338.946045 171.985550,339.005524 172.284943,339.042236 
	C172.801376,339.070374 173.018433,339.061737 173.235504,339.053070 
z"/>
<path fill="#FED114" opacity="1.000000" stroke="none" 
	d="
M285.194916,185.997330 
	C284.235107,182.596115 283.275269,179.194885 282.220947,175.093170 
	C282.074249,171.906052 282.022034,169.419418 281.969818,166.932800 
	C281.969818,166.932800 281.987671,166.994751 282.375305,166.933472 
	C290.842560,166.585602 298.922211,166.299011 306.980896,166.416046 
	C308.118439,176.506180 301.978760,186.288712 307.093811,196.109314 
	C300.383453,201.212646 300.105743,203.538162 305.705597,207.281158 
	C302.267181,207.660446 299.140625,207.778381 295.896881,207.570984 
	C293.693024,205.826706 291.091370,204.804779 289.627350,202.905792 
	C286.628815,199.016464 285.716888,194.510712 287.367096,189.555161 
	C287.650330,188.704636 285.968842,187.199860 285.194916,185.997330 
z"/>
<path fill="#FED90E" opacity="1.000000" stroke="none" 
	d="
M305.153992,305.447327 
	C309.687286,291.232819 310.632202,276.912384 309.934631,262.412537 
	C309.801270,259.640686 309.367523,256.883362 309.072388,254.119324 
	C309.516479,254.034180 309.960571,253.949051 310.404633,253.863907 
	C310.325165,253.549088 310.330414,253.020233 310.153961,252.950394 
	C303.635895,250.369995 304.850769,245.701935 306.144531,240.397018 
	C306.834320,237.568817 305.542542,234.282257 305.296814,231.190521 
	C305.173126,229.634644 303.932129,227.108551 307.781738,227.915100 
	C308.729828,231.524994 309.177338,235.059708 310.083862,238.472488 
	C310.512878,240.087585 311.820038,241.469437 313.128540,243.356873 
	C315.341461,244.478607 317.155212,245.200424 318.828552,246.281586 
	C318.025574,249.659180 317.362976,252.677429 316.670959,255.829742 
	C320.887482,255.900223 322.835999,259.807953 322.123901,263.526001 
	C321.201721,268.341003 318.371765,273.354279 322.237610,278.191620 
	C320.976074,280.364441 317.444885,282.857971 323.065857,284.058472 
	C322.378754,287.969574 321.228302,291.865204 321.097107,295.794861 
	C320.784760,305.152435 314.288757,309.428833 305.153992,305.447327 
z"/>
<path fill="#FC583F" opacity="1.000000" stroke="none" 
	d="
M292.009796,120.266220 
	C295.431030,121.579590 298.852295,122.892960 302.701691,124.370689 
	C302.701691,121.851448 302.701691,119.795166 302.701691,117.290367 
	C312.936462,121.630020 322.171570,125.845856 326.833191,136.502335 
	C330.423553,144.709915 328.714905,151.836899 324.481964,158.891434 
	C323.927094,159.816177 322.391296,160.152328 320.233368,161.367050 
	C321.023682,154.836533 321.701935,149.231903 322.465424,142.923019 
	C311.790100,142.923019 301.885132,142.923019 291.797791,142.655579 
	C293.599915,141.575760 295.773407,141.038330 297.500427,139.851349 
	C298.595123,139.098938 299.970062,136.907959 299.601562,136.169144 
	C296.978729,130.911041 296.600922,124.558609 292.009796,120.266220 
z"/>
<path fill="#FD3153" opacity="1.000000" stroke="none" 
	d="
M267.758606,149.032776 
	C267.820831,149.464050 267.883057,149.895340 267.628601,150.755493 
	C263.815460,155.252975 259.154114,153.942490 254.810181,153.717957 
	C253.997849,153.675980 252.776505,152.363403 252.634781,151.492249 
	C252.525131,150.818344 253.680191,149.726028 254.509338,149.175980 
	C255.237701,148.692810 256.294220,148.704330 257.654114,148.395599 
	C256.275085,147.118530 255.274796,146.192230 254.874756,145.821777 
	C255.289871,143.075516 256.474823,140.628860 255.759872,139.033859 
	C252.645935,132.087128 253.304947,125.628052 257.005280,119.236519 
	C257.441498,119.193367 257.877686,119.150215 258.771118,119.473900 
	C265.787933,119.913345 272.347565,119.985947 278.984406,120.403976 
	C279.547607,125.268143 280.072601,129.783493 280.466888,134.310226 
	C280.512695,134.835846 279.829712,135.421997 279.491974,135.984482 
	C278.300568,137.968506 277.112335,139.954422 275.584320,141.941162 
	C274.322571,141.652664 273.282745,140.938980 272.498932,141.154861 
	C270.438965,141.722260 267.917938,142.220901 266.710449,143.681213 
	C265.976288,144.569107 267.338226,147.190231 267.758606,149.032776 
z"/>
<path fill="#FED90E" opacity="1.000000" stroke="none" 
	d="
M306.017426,207.019806 
	C300.105743,203.538162 300.383453,201.212646 307.093811,196.109314 
	C301.978760,186.288712 308.118439,176.506180 307.375122,166.401917 
	C312.790802,165.285843 314.588470,170.098694 318.094299,171.972275 
	C318.094299,171.972275 318.025787,171.981110 318.018829,172.319870 
	C318.724823,174.096909 319.437775,175.535202 320.150726,176.973480 
	C320.150726,176.973480 320.057739,176.967972 320.070740,177.295685 
	C320.763702,178.736984 321.443665,179.850555 322.123596,180.964127 
	C322.123596,180.964127 322.051514,180.969818 322.040039,181.353333 
	C323.385468,183.951920 319.517731,187.668686 324.103424,188.955734 
	C324.103424,188.955734 324.034210,188.973038 324.052063,189.227997 
	C324.329071,189.989182 324.588196,190.495407 324.847290,191.001633 
	C324.847290,191.001633 324.983063,191.387680 324.971191,191.951599 
	C325.269989,195.055878 325.547211,197.600876 325.899933,200.135391 
	C326.337433,203.279541 326.726349,206.344254 322.033051,206.191254 
	C318.209961,205.465134 314.398071,204.661957 310.550659,204.103149 
	C310.026062,204.026947 309.324219,205.170990 308.079651,205.990662 
	C306.975739,206.494095 306.496582,206.756943 306.017426,207.019806 
z"/>
<path fill="#0ECAF6" opacity="1.000000" stroke="none" 
	d="
M153.922379,201.899918 
	C154.012711,200.102264 154.103043,198.304626 154.213943,196.097916 
	C171.529877,196.097916 188.734100,196.045898 205.935837,196.229858 
	C206.945755,196.240631 208.611710,198.049316 208.793427,199.206482 
	C209.170517,201.607864 208.754776,204.133743 207.837219,206.798431 
	C189.354904,207.013290 171.700348,207.038177 154.045792,207.063049 
	C154.045792,207.063065 153.943588,207.060272 153.970123,206.589386 
	C153.971909,204.712296 153.947144,203.306107 153.922379,201.899918 
z"/>
<path fill="#0ECAF6" opacity="1.000000" stroke="none" 
	d="
M241.958191,186.066895 
	C241.956024,187.816223 241.956024,189.113434 241.956024,190.950546 
	C232.039581,190.950546 222.475540,190.948364 212.911484,190.951614 
	C209.082779,190.952911 205.167831,191.478394 201.445892,190.851883 
	C196.085388,189.949524 198.494904,185.251205 198.118118,182.087997 
	C197.730225,178.831558 200.274918,179.054733 202.498962,178.998779 
	C214.023346,178.708817 225.546387,178.365311 237.070282,178.055023 
	C238.677139,178.011749 240.286179,178.049042 241.960358,178.049042 
	C241.960358,180.900314 241.960358,183.257553 241.958191,186.066895 
z"/>
<path fill="#FDE707" opacity="1.000000" stroke="none" 
	d="
M323.040802,284.040436 
	C317.444885,282.857971 320.976074,280.364441 322.237610,278.191620 
	C318.371765,273.354279 321.201721,268.341003 322.123901,263.526001 
	C322.835999,259.807953 320.887482,255.900223 316.670959,255.829742 
	C317.362976,252.677429 318.025574,249.659180 319.108307,246.106277 
	C321.348328,240.044342 323.168182,234.517059 325.396729,228.920349 
	C326.908936,228.881851 328.012390,228.912811 329.115875,228.943756 
	C329.115875,228.943756 329.042389,228.967285 329.041748,229.295135 
	C331.310974,232.107803 333.580872,234.592621 335.850739,237.077423 
	C336.522552,237.840912 337.194366,238.604385 338.067780,239.983978 
	C341.367645,243.292175 341.027344,246.629898 340.050659,250.087097 
	C340.050659,250.087097 340.034119,250.018311 339.754944,250.092102 
	C338.996399,250.809402 338.517059,251.452911 338.037689,252.096405 
	C338.037689,252.096405 338.015320,252.027954 337.660034,252.032959 
	C334.548676,253.400116 331.792603,254.762283 329.036530,256.124451 
	C329.036530,256.124481 329.026947,256.026978 328.832520,256.134521 
	C328.429077,256.523102 328.220032,256.804169 328.010986,257.085266 
	C328.010986,257.085266 328.013153,257.009003 327.775726,257.137329 
	C327.346680,257.613861 327.155060,257.962097 326.963440,258.310303 
	C326.963440,258.310303 327.000488,258.488708 326.965576,258.982483 
	C326.945587,259.745209 326.960541,260.014160 326.975464,260.283081 
	C326.975464,260.283081 327.020813,260.552795 326.882202,260.898560 
	C327.117645,261.843842 327.491699,262.443390 327.865753,263.042938 
	C331.369537,268.461700 327.211914,271.375488 324.061462,274.443115 
	C324.331024,277.215118 328.048096,279.799042 323.787018,282.855042 
	C323.274261,283.532745 323.129150,283.787811 323.044312,284.077148 
	C323.044312,284.077148 323.015747,284.022400 323.040802,284.040436 
z"/>
<path fill="#0ECAF6" opacity="1.000000" stroke="none" 
	d="
M172.005417,190.803223 
	C166.942062,191.182648 161.880249,191.585953 156.813339,191.909622 
	C156.216599,191.947754 155.062653,191.557755 155.059006,191.350525 
	C154.997574,187.861664 154.732834,184.310638 155.320496,180.913040 
	C155.516678,179.778793 157.955139,178.289825 159.400558,178.254059 
	C163.660675,178.148621 167.937042,178.919220 172.206558,178.914337 
	C176.636002,178.909271 181.063873,178.381699 185.494385,178.115463 
	C187.782745,177.977951 189.961884,178.075119 189.698608,181.952927 
	C189.243973,185.370605 189.083405,188.067200 188.922852,190.763779 
	C188.488403,190.821060 188.053955,190.878326 186.946228,190.654648 
	C181.517120,190.516876 176.761261,190.660049 172.005417,190.803223 
z"/>
<path fill="#FB4A46" opacity="1.000000" stroke="none" 
	d="
M275.922913,141.939636 
	C277.112335,139.954422 278.300568,137.968506 279.491974,135.984482 
	C279.829712,135.421997 280.512695,134.835846 280.466888,134.310226 
	C280.072601,129.783493 279.547607,125.268143 279.415039,120.383408 
	C281.191833,120.007233 282.615173,119.997055 284.471680,119.987213 
	C286.927032,119.967850 288.949219,119.948143 290.971375,119.928429 
	C291.147003,119.976646 291.322601,120.024864 291.754028,120.169647 
	C296.600922,124.558609 296.978729,130.911041 299.601562,136.169144 
	C299.970062,136.907959 298.595123,139.098938 297.500427,139.851349 
	C295.773407,141.038330 293.599915,141.575760 291.337708,142.584808 
	C289.945618,142.831680 288.831238,142.881866 286.985352,142.668533 
	C283.529480,142.525543 280.805084,142.646072 278.080688,142.766586 
	C277.612762,142.803940 277.144836,142.841293 276.326721,142.609833 
	C275.976562,142.341003 275.922913,141.939636 275.922913,141.939636 
z"/>
<path fill="#17C6F0" opacity="1.000000" stroke="none" 
	d="
M189.823181,241.735870 
	C181.823456,242.447037 173.804031,243.409836 166.009705,242.481903 
	C163.993942,242.241943 162.684052,236.072922 161.049911,232.627426 
	C162.896164,231.797058 164.719452,230.316223 166.592712,230.250046 
	C174.291870,229.978058 182.006210,230.136337 189.887314,230.136337 
	C189.887314,234.741531 189.887314,238.012329 189.823181,241.735870 
z"/>
<path fill="#17C6F0" opacity="1.000000" stroke="none" 
	d="
M189.929993,222.084015 
	C188.855621,223.319778 187.822174,224.716644 186.694077,224.797745 
	C182.729156,225.082886 178.719925,224.733337 174.751068,224.989548 
	C172.426193,225.139618 170.091919,225.816177 167.856812,226.546463 
	C163.022446,228.125977 159.109329,225.384659 159.023865,220.254150 
	C158.995148,218.529816 158.793747,216.808365 158.598587,214.062881 
	C160.849396,214.062881 163.055756,214.136520 165.255753,214.049423 
	C172.649139,213.756714 180.041946,213.212952 187.430496,213.277710 
	C188.602615,213.287979 190.175461,215.787186 190.767090,217.423477 
	C191.184357,218.577499 190.255417,220.218292 189.929993,222.084015 
z"/>
<path fill="#F3206D" opacity="1.000000" stroke="none" 
	d="
M229.979111,125.174347 
	C230.438583,125.133102 230.898056,125.091866 231.917755,125.060745 
	C232.477966,125.070862 232.911240,125.000038 232.911240,125.000038 
	C232.911240,125.000038 233.000320,124.982071 233.036682,125.398178 
	C233.445511,128.550781 233.818008,131.287262 234.190506,134.023758 
	C234.105698,134.455078 234.020889,134.886383 233.697510,135.769562 
	C233.235565,136.421875 233.106094,136.671112 233.070541,136.969116 
	C233.070541,136.969116 233.045303,137.035782 232.754578,137.020966 
	C232.293198,137.025650 232.122543,137.045181 231.951874,137.064697 
	C231.535126,137.035461 231.118393,137.006226 230.036377,136.779205 
	C221.764618,136.397537 214.158890,136.164261 206.551407,136.043579 
	C198.843170,135.921280 197.350616,133.650101 200.423721,126.004448 
	C202.771912,126.004448 205.247498,126.072151 207.718292,125.991760 
	C215.139572,125.750275 222.558975,125.451042 229.979111,125.174347 
z"/>
<path fill="#F7A634" opacity="1.000000" stroke="none" 
	d="
M244.936539,245.933624 
	C243.862091,246.653107 242.876053,247.618362 241.695557,248.043015 
	C238.884048,249.054337 238.461670,250.425171 240.479980,252.790649 
	C239.883224,253.062027 239.420135,253.070847 238.957062,253.079681 
	C230.969543,249.729309 224.801270,244.024399 223.272415,235.630524 
	C221.364471,225.155319 224.320389,221.554733 234.639252,218.099365 
	C235.141830,219.308563 235.550247,220.519089 235.307922,221.581116 
	C234.385361,225.624390 235.261963,228.269501 239.870361,228.925690 
	C240.651428,229.036911 241.245667,230.460175 241.609985,231.524902 
	C239.183243,231.380280 236.533905,230.037949 235.105331,230.848129 
	C233.498108,231.759644 232.213898,234.594391 232.166779,236.624496 
	C232.065155,241.002609 240.424561,246.772079 244.936539,245.933624 
M232.445114,227.860794 
	C232.175079,227.838837 231.905045,227.816864 231.635010,227.794907 
	C231.631485,227.947845 231.627960,228.100784 231.624435,228.253738 
	C231.895401,228.242905 232.166382,228.232086 232.445114,227.860794 
z"/>
<path fill="#F7A634" opacity="1.000000" stroke="none" 
	d="
M223.340820,281.054138 
	C235.628830,281.163544 233.839218,279.332977 233.984940,291.283325 
	C234.025314,294.593445 233.857239,297.911346 234.028580,301.213043 
	C234.186996,304.265717 232.171204,304.898224 230.004990,304.785156 
	C226.811325,304.618530 223.643906,303.949341 220.050583,303.434814 
	C220.050583,297.099792 219.917252,290.678040 220.177872,284.272369 
	C220.222900,283.166107 221.939163,282.127838 223.340820,281.054138 
z"/>
<path fill="#E82F58" opacity="1.000000" stroke="none" 
	d="
M256.633301,119.150284 
	C253.304947,125.628052 252.645935,132.087128 255.759872,139.033859 
	C256.474823,140.628860 255.289871,143.075516 254.874756,145.821777 
	C255.274796,146.192230 256.275085,147.118530 257.654114,148.395599 
	C256.294220,148.704330 255.237701,148.692810 254.509338,149.175980 
	C253.680191,149.726028 252.525131,150.818344 252.634781,151.492249 
	C252.776505,152.363403 253.997849,153.675980 254.810181,153.717957 
	C259.154114,153.942490 263.815460,155.252975 267.660828,151.082062 
	C268.801025,154.416290 268.716370,154.815674 265.726135,154.873047 
	C258.248444,155.016464 250.765930,154.934875 243.285767,154.883896 
	C242.512772,154.878632 241.095184,154.530106 241.069305,154.242508 
	C240.747360,150.665588 240.181229,147.001297 240.720337,143.520950 
	C240.888611,142.434631 244.123611,141.618347 246.066147,141.080933 
	C247.459442,140.695465 249.171585,141.335663 250.487747,140.841888 
	C251.394684,140.501633 252.389664,139.033936 252.446777,138.019516 
	C252.740524,132.802948 253.165192,127.532173 252.700562,122.356056 
	C252.388275,118.877388 253.963531,118.949387 256.633301,119.150284 
z"/>
<path fill="#FEC91C" opacity="1.000000" stroke="none" 
	d="
M285.118347,186.389816 
	C285.968842,187.199860 287.650330,188.704636 287.367096,189.555161 
	C285.716888,194.510712 286.628815,199.016464 289.627350,202.905792 
	C291.091370,204.804779 293.693024,205.826706 295.427551,207.602966 
	C285.727173,207.932327 276.378937,207.904327 267.029480,207.487350 
	C268.836212,205.147537 270.644226,203.196701 272.427368,201.272720 
	C271.985596,200.932999 270.792023,200.015106 269.588440,199.089539 
	C271.973694,198.010361 273.969147,197.107513 275.964630,196.204681 
	C282.227661,195.786972 284.090118,193.853683 285.118347,186.389816 
z"/>
<path fill="#B21C6A" opacity="1.000000" stroke="none" 
	d="
M181.119446,142.080780 
	C183.869873,142.083542 186.163742,142.083542 189.050034,142.083542 
	C189.050034,146.519821 189.050034,150.371902 189.050034,154.579407 
	C181.364517,154.579407 174.107697,154.579407 166.849136,154.575409 
	C167.731476,146.878311 172.949951,142.159225 181.119446,142.080780 
z"/>
<path fill="#FEC11E" opacity="1.000000" stroke="none" 
	d="
M230.867416,331.861389 
	C230.148026,331.899780 229.428619,331.938171 228.035522,331.666992 
	C225.224884,331.251831 223.087982,331.146271 220.951065,331.040741 
	C220.951065,331.040741 221.002792,331.005066 221.019775,330.560211 
	C221.017014,323.399841 220.997269,316.684326 220.977509,309.968811 
	C220.977509,309.968811 221.000153,310.000000 221.443512,310.018188 
	C223.367569,310.018890 224.848297,309.984039 226.328949,309.987061 
	C232.645996,309.999847 232.882904,310.246429 232.934479,316.742676 
	C232.972336,321.511719 233.010498,326.280762 233.048523,331.049805 
	C233.048523,331.049805 233.000763,330.999695 232.723267,331.008514 
	C231.919632,331.298676 231.393524,331.580017 230.867416,331.861389 
z"/>
<path fill="#FB4A46" opacity="1.000000" stroke="none" 
	d="
M205.164062,265.549561 
	C210.074219,261.219666 215.973877,262.248199 220.730103,263.806152 
	C225.239609,265.283264 222.488098,270.858765 222.626114,274.584778 
	C222.652405,275.294617 219.463516,276.446960 217.639786,276.825745 
	C214.945419,277.385406 212.149445,277.500854 209.388641,277.682556 
	C206.809250,277.852386 204.839066,277.255249 205.034912,273.966461 
	C205.192703,271.316345 205.094940,268.651031 205.164062,265.549561 
z"/>
<path fill="#FED114" opacity="1.000000" stroke="none" 
	d="
M224.109894,373.423157 
	C232.020142,373.583069 232.020737,373.583069 232.022385,364.969452 
	C232.023483,359.203400 232.022598,353.437317 232.022598,347.629669 
	C228.310257,347.629669 225.393372,347.629669 222.022293,347.629669 
	C221.946243,348.955688 222.098007,350.433838 221.667938,351.716980 
	C221.502975,352.209137 220.010223,352.256226 219.037811,352.212219 
	C219.249298,347.391418 219.545486,342.864563 219.840240,338.359863 
	C223.919312,337.741028 227.428391,337.022430 230.968994,336.795410 
	C231.918320,336.734497 233.822861,338.157196 233.836075,338.923828 
	C234.030319,350.193207 234.099716,361.470154 233.791367,372.734131 
	C233.761703,373.817383 231.083832,375.537750 229.520569,375.677307 
	C227.831558,375.828094 226.007812,374.469574 224.109894,373.423157 
z"/>
<path fill="#E82F58" opacity="1.000000" stroke="none" 
	d="
M199.074554,236.575867 
	C199.070633,234.007324 199.070633,231.874954 199.070633,229.054703 
	C203.666916,229.054703 207.938171,228.845367 212.160583,229.206635 
	C213.175827,229.293488 214.666748,231.187927 214.829880,232.400330 
	C215.222092,235.315125 214.956863,238.318390 214.956863,241.586090 
	C209.453033,241.586090 204.275772,241.586090 198.811096,241.586090 
	C198.914688,239.813843 198.996582,238.412933 199.074554,236.575867 
z"/>
<path fill="#B21C6A" opacity="1.000000" stroke="none" 
	d="
M229.522644,125.075661 
	C222.558975,125.451042 215.139572,125.750275 207.718292,125.991760 
	C205.247498,126.072151 202.771912,126.004448 200.423721,126.004448 
	C197.350616,133.650101 198.843170,135.921280 206.551407,136.043579 
	C214.158890,136.164261 221.764618,136.397537 229.723495,136.804642 
	C228.863831,137.369080 227.653259,137.999573 226.439499,138.005783 
	C216.618439,138.056168 206.791534,138.155334 196.978943,137.844330 
	C194.449203,137.764145 191.127808,138.459534 189.921402,134.376373 
	C188.927216,131.011490 189.700424,128.846176 192.764053,127.767509 
	C196.115982,126.587334 199.611664,125.265816 203.093445,125.112396 
	C211.736221,124.731583 220.406784,124.980812 229.522644,125.075661 
z"/>
<path fill="#FDB922" opacity="1.000000" stroke="none" 
	d="
M275.508423,196.118027 
	C273.969147,197.107513 271.973694,198.010361 269.588440,199.089539 
	C270.792023,200.015106 271.985596,200.932999 272.427368,201.272720 
	C270.644226,203.196701 268.836212,205.147537 266.563599,207.521133 
	C263.615082,207.957275 261.130615,208.012070 258.647491,207.974838 
	C254.299408,207.909653 253.090591,206.084900 253.210678,201.807159 
	C253.367447,196.223343 257.971832,197.510849 260.916138,196.185287 
	C265.628174,196.133972 270.340210,196.082672 275.508423,196.118027 
z"/>
<path fill="#B21C6A" opacity="1.000000" stroke="none" 
	d="
M164.071198,172.960861 
	C161.975800,172.961914 160.341980,172.961914 158.787445,172.961914 
	C157.327759,164.237930 160.564850,160.630066 170.494263,159.882599 
	C170.494263,164.066376 170.494263,168.229706 170.494263,172.959808 
	C168.426727,172.959808 166.479752,172.959808 164.071198,172.960861 
z"/>
<path fill="#B21C6A" opacity="1.000000" stroke="none" 
	d="
M178.229950,161.481659 
	C181.623291,160.394485 184.913849,159.743301 188.614883,159.010880 
	C188.614883,163.641220 188.614883,167.858337 188.614883,172.154602 
	C188.451782,172.300323 188.230438,172.675415 187.966629,172.708160 
	C177.887177,173.958832 177.886658,173.954666 178.229950,161.481659 
z"/>
<path fill="#ECC34E" opacity="1.000000" stroke="none" 
	d="
M241.003006,315.031555 
	C241.003662,311.567902 241.003662,308.598419 241.003662,305.315002 
	C245.616837,305.315002 250.001343,305.315002 254.699677,305.315002 
	C254.699677,317.967377 254.699677,330.665558 254.699677,343.686646 
	C250.367584,343.686646 245.983215,343.686646 241.002350,343.686646 
	C241.002350,334.328979 241.002350,324.927338 241.003006,315.031555 
M253.996277,319.079926 
	C253.999176,316.098022 253.855270,313.107086 254.038239,310.136261 
	C254.338318,305.263611 250.954025,305.976532 248.026199,305.999451 
	C245.136703,306.022095 241.780731,305.200378 241.969910,310.107269 
	C242.186737,315.731750 242.047958,321.369934 242.031372,327.934387 
	C242.003693,331.244904 242.113083,334.563812 241.911057,337.863647 
	C241.694839,341.395599 243.715164,343.127228 246.642105,342.568604 
	C249.447403,342.033173 254.285400,343.865997 254.064301,337.889160 
	C253.844147,331.937469 253.981384,325.972534 253.996277,319.079926 
z"/>
<path fill="#17C6F0" opacity="1.000000" stroke="none" 
	d="
M169.956085,255.034271 
	C169.359970,253.300873 168.763855,251.567490 168.167755,249.834106 
	C169.954315,249.237137 171.716751,248.232040 173.532257,248.124710 
	C177.857803,247.869034 182.217636,248.208786 186.545853,247.976776 
	C189.643005,247.810745 190.575760,249.428299 190.925797,252.005951 
	C192.036102,260.182281 191.386902,260.899719 183.370377,261.007477 
	C180.442230,261.046844 177.516586,261.686768 174.594406,261.653137 
	C170.820175,261.609772 170.341385,258.535950 170.210297,255.459839 
	C172.459305,258.715088 174.970184,260.730469 179.242508,259.756500 
	C180.805481,259.400208 182.556473,259.467590 184.153030,259.741669 
	C187.702225,260.350952 188.992691,258.849243 189.035751,255.446213 
	C189.076721,252.207245 188.483139,249.849518 184.503250,249.993423 
	C181.361221,250.107056 178.191803,250.229767 175.070251,249.950089 
	C171.122513,249.596359 169.500015,251.164352 169.956085,255.034271 
z"/>
<path fill="#ECC34E" opacity="1.000000" stroke="none" 
	d="
M260.472046,196.116058 
	C257.971832,197.510849 253.367447,196.223343 253.210678,201.807159 
	C253.090591,206.084900 254.299408,207.909653 258.647491,207.974838 
	C261.130615,208.012070 263.615082,207.957275 266.564850,207.910126 
	C276.378937,207.904327 285.727173,207.932327 295.544708,207.928329 
	C299.140625,207.778381 302.267181,207.660446 305.705597,207.281158 
	C306.496582,206.756943 306.975739,206.494095 307.731079,206.214645 
	C306.731354,207.128006 305.463837,208.854080 304.178345,208.867569 
	C287.042175,209.047638 269.903442,208.987915 252.395660,208.987915 
	C252.395660,204.787613 252.395660,200.734940 252.395660,196.046844 
	C254.851120,196.046844 257.439545,196.046844 260.472046,196.116058 
z"/>
<path fill="#ECC34E" opacity="1.000000" stroke="none" 
	d="
M318.095947,231.087219 
	C318.095947,233.741562 318.095947,236.395905 318.095947,239.159409 
	C315.177673,238.212662 315.304077,238.207169 314.996216,231.115494 
	C314.862000,228.024231 313.729187,224.963669 313.703674,221.883759 
	C313.675842,218.521225 314.404816,215.152405 315.253113,211.699097 
	C315.702240,211.611847 315.983337,211.980240 315.965790,212.431900 
	C315.714630,215.793823 315.053009,218.750595 315.362854,221.601791 
	C315.700470,224.708298 316.939240,227.716858 317.862671,230.848099 
	C317.940155,230.928070 318.095947,231.087219 318.095947,231.087219 
z"/>
<path fill="#17C6F0" opacity="1.000000" stroke="none" 
	d="
M154.262711,207.433624 
	C171.700348,207.038177 189.354904,207.013290 207.471100,207.016754 
	C207.079727,207.342728 206.226791,207.899384 205.373627,207.899719 
	C188.408966,207.906418 171.444305,207.848785 154.262711,207.433624 
z"/>
<path fill="#ECC34E" opacity="1.000000" stroke="none" 
	d="
M318.065552,171.591553 
	C314.588470,170.098694 312.790802,165.285843 307.396118,165.998260 
	C298.922211,166.299011 290.842560,166.585602 282.343689,166.927170 
	C283.272583,166.323456 284.611420,165.116974 285.970367,165.093903 
	C295.661682,164.929276 305.357117,165.006088 315.367798,165.006088 
	C316.174683,166.881927 317.105774,169.046387 318.065552,171.591553 
z"/>
<path fill="#ECC34E" opacity="1.000000" stroke="none" 
	d="
M324.988037,228.989777 
	C323.168182,234.517059 321.348328,240.044342 319.248688,245.746918 
	C317.155212,245.200424 315.341461,244.478607 313.521484,243.434143 
	C318.793213,244.726517 320.015045,244.045670 320.953308,238.706512 
	C321.505890,235.562042 321.859985,232.382675 322.991272,229.091827 
	C324.123627,228.980423 324.568085,228.996170 325.006622,229.006302 
	C325.000702,229.000671 324.988037,228.989777 324.988037,228.989777 
z"/>
<path fill="#ECC34E" opacity="1.000000" stroke="none" 
	d="
M315.570007,211.421600 
	C316.758148,210.877441 318.078583,210.523529 319.398987,210.169601 
	C319.605164,211.459381 320.047394,212.762268 319.976746,214.036697 
	C319.669617,219.575790 319.213104,225.106628 318.453430,230.863831 
	C318.095947,231.087219 317.940155,230.928070 317.931702,230.404694 
	C317.979462,225.219131 318.192352,220.550201 317.993011,215.898956 
	C317.935883,214.566452 316.686188,213.285065 315.983337,211.980240 
	C315.983337,211.980240 315.702240,211.611847 315.570007,211.421600 
z"/>
<path fill="#ECC34E" opacity="1.000000" stroke="none" 
	d="
M322.162201,206.490204 
	C326.726349,206.344254 326.337433,203.279541 325.899933,200.135391 
	C325.547211,197.600876 325.269989,195.055878 324.984070,192.155792 
	C328.030701,197.287216 328.434662,202.995697 326.226257,209.515274 
	C324.814026,208.536865 323.552673,207.663010 322.162201,206.490204 
z"/>
<path fill="#ECC34E" opacity="1.000000" stroke="none" 
	d="
M233.431396,330.836426 
	C233.010498,326.280762 232.972336,321.511719 232.934479,316.742676 
	C232.882904,310.246429 232.645996,309.999847 226.328949,309.987061 
	C224.848297,309.984039 223.367569,310.018890 221.427673,310.007385 
	C225.100525,309.540985 229.232574,309.103607 233.814240,308.618622 
	C233.814240,316.432831 233.814240,323.527954 233.431396,330.836426 
z"/>
<path fill="#ECC34E" opacity="1.000000" stroke="none" 
	d="
M297.078186,219.179260 
	C295.347473,219.179947 293.616791,219.180634 291.457733,219.248260 
	C286.332001,219.249115 281.634613,219.183044 276.473145,219.157700 
	C275.460083,218.935699 274.911102,218.673004 274.181763,218.163208 
	C284.209412,218.013123 294.417480,218.110153 304.850250,218.584396 
	C303.963867,219.024002 302.852753,219.086380 300.945068,219.127502 
	C299.125092,219.130600 298.101624,219.154938 297.078186,219.179260 
z"/>
<path fill="#ECC34E" opacity="1.000000" stroke="none" 
	d="
M171.573807,339.141724 
	C172.000275,350.563171 170.693771,348.763702 181.947922,348.998566 
	C183.751572,349.036224 185.551437,349.253662 187.696198,349.625854 
	C182.472626,349.863678 176.905899,349.863678 171.183228,349.863678 
	C171.183228,346.176331 171.183228,342.756866 171.573807,339.141724 
z"/>
<path fill="#E82F58" opacity="1.000000" stroke="none" 
	d="
M284.038513,119.986870 
	C282.615173,119.997055 281.191833,120.007233 279.337830,120.037987 
	C272.347565,119.985947 265.787933,119.913345 259.095367,119.537170 
	C266.997955,119.182632 275.033447,119.131676 283.545471,119.348541 
	C284.022003,119.616371 284.038513,119.986870 284.038513,119.986870 
z"/>
<path fill="#ECC34E" opacity="1.000000" stroke="none" 
	d="
M200.897064,339.586792 
	C192.324493,339.820953 183.510101,339.684753 174.330963,339.354980 
	C182.862549,339.179749 191.758896,339.198090 200.897064,339.586792 
z"/>
<path fill="#ECC34E" opacity="1.000000" stroke="none" 
	d="
M251.129364,259.353638 
	C252.113861,263.653717 253.020477,268.387726 253.905731,273.571899 
	C253.262085,273.157806 252.212387,272.348907 252.092056,271.419647 
	C251.592529,267.562042 251.373489,263.668121 251.129364,259.353638 
z"/>
<path fill="#E82F58" opacity="1.000000" stroke="none" 
	d="
M275.584320,141.941162 
	C275.922913,141.939636 275.976562,142.341003 275.979492,142.543442 
	C275.015503,142.806244 274.028870,143.020798 273.084991,142.900330 
	C268.975616,142.375809 267.323212,144.158188 267.834839,148.608337 
	C267.338226,147.190231 265.976288,144.569107 266.710449,143.681213 
	C267.917938,142.220901 270.438965,141.722260 272.498932,141.154861 
	C273.282745,140.938980 274.322571,141.652664 275.584320,141.941162 
z"/>
<path fill="#ECC34E" opacity="1.000000" stroke="none" 
	d="
M220.603394,310.191650 
	C220.997269,316.684326 221.017014,323.399841 220.999084,330.586243 
	C220.482605,330.966461 219.582932,330.865234 219.584900,330.786560 
	C219.754898,323.994751 219.994522,317.204681 220.603394,310.191650 
z"/>
<path fill="#ECC34E" opacity="1.000000" stroke="none" 
	d="
M329.076721,228.578827 
	C328.012390,228.912811 326.908936,228.881851 325.396729,228.920349 
	C324.988037,228.989777 325.000702,229.000671 325.007019,228.704498 
	C324.420441,227.980515 323.827576,227.552734 323.234711,227.124954 
	C323.386627,225.505234 323.538513,223.885513 323.703003,222.131714 
	C325.752960,224.468964 327.395294,226.341431 329.076721,228.578827 
z"/>
<path fill="#ECC34E" opacity="1.000000" stroke="none" 
	d="
M335.934692,236.722946 
	C333.580872,234.592621 331.310974,232.107803 329.054504,229.258728 
	C331.384827,231.385803 333.701752,233.877136 335.934692,236.722946 
z"/>
<path fill="#ECC34E" opacity="1.000000" stroke="none" 
	d="
M340.392853,249.956696 
	C341.027344,246.629898 341.367645,243.292175 338.190796,240.267136 
	C343.399597,242.291473 343.899780,244.177994 340.392853,249.956696 
z"/>
<path fill="#ECC34E" opacity="1.000000" stroke="none" 
	d="
M329.426208,256.086609 
	C331.792603,254.762283 334.548676,253.400116 337.693970,252.045029 
	C335.327393,253.384323 332.571625,254.716537 329.426208,256.086609 
z"/>
<path fill="#17C6F0" opacity="1.000000" stroke="none" 
	d="
M172.465103,190.883606 
	C176.761261,190.660049 181.517120,190.516876 186.622620,190.581116 
	C182.289795,190.847031 177.607285,190.905502 172.465103,190.883606 
z"/>
<path fill="#B21C6A" opacity="1.000000" stroke="none" 
	d="
M234.517609,133.793945 
	C233.818008,131.287262 233.445511,128.550781 233.051193,125.441223 
	C233.634476,127.900154 234.239578,130.732147 234.517609,133.793945 
z"/>
<path fill="#ECC34E" opacity="1.000000" stroke="none" 
	d="
M273.867432,217.565247 
	C272.010864,217.980026 269.949402,218.013412 267.447144,218.071808 
	C265.603333,218.078232 264.200287,218.059616 262.378082,218.002197 
	C265.860138,217.703537 269.761322,217.443680 273.867432,217.565247 
z"/>
<path fill="#ECC34E" opacity="1.000000" stroke="none" 
	d="
M324.056885,188.559250 
	C319.517731,187.668686 323.385468,183.951920 322.043274,181.317322 
	C322.708771,183.319458 323.359558,185.741119 324.056885,188.559250 
z"/>
<path fill="#ECC34E" opacity="1.000000" stroke="none" 
	d="
M281.607147,167.130966 
	C282.022034,169.419418 282.074249,171.906052 282.063782,174.767303 
	C281.748901,172.537674 281.496704,169.933411 281.607147,167.130966 
z"/>
<path fill="#ECC34E" opacity="1.000000" stroke="none" 
	d="
M239.096817,253.401459 
	C239.420135,253.070847 239.883224,253.062027 240.695038,253.057434 
	C242.271591,253.870804 243.499390,254.679916 244.856552,255.782791 
	C243.069473,255.292099 241.153015,254.507660 239.096817,253.401459 
z"/>
<path fill="#E82F58" opacity="1.000000" stroke="none" 
	d="
M278.514099,142.851181 
	C280.805084,142.646072 283.529480,142.525543 286.571320,142.599884 
	C284.241669,142.841766 281.594604,142.888763 278.514099,142.851181 
z"/>
<path fill="#ECC34E" opacity="1.000000" stroke="none" 
	d="
M209.008423,363.390350 
	C210.550674,363.776245 212.235687,364.494751 214.087601,365.523132 
	C212.553375,365.129639 210.852280,364.426331 209.008423,363.390350 
z"/>
<path fill="#17C6F0" opacity="1.000000" stroke="none" 
	d="
M189.328674,190.660370 
	C189.083405,188.067200 189.243973,185.370605 189.625275,182.353394 
	C189.808838,184.874176 189.771667,187.715561 189.328674,190.660370 
z"/>
<path fill="#FEC91C" opacity="1.000000" stroke="none" 
	d="
M293.747681,301.100739 
	C294.985199,301.347137 296.407715,301.856201 297.890991,302.743652 
	C296.612091,302.535828 295.272369,301.949615 293.747681,301.100739 
z"/>
<path fill="#ECC34E" opacity="1.000000" stroke="none" 
	d="
M320.101013,176.597931 
	C319.437775,175.535202 318.724823,174.096909 318.027557,172.286438 
	C318.712616,173.350311 319.381958,174.786346 320.101013,176.597931 
z"/>
<path fill="#ECC34E" opacity="1.000000" stroke="none" 
	d="
M322.083984,180.607819 
	C321.443665,179.850555 320.763702,178.736984 320.076233,177.249435 
	C320.727295,178.000809 321.385834,179.126160 322.083984,180.607819 
z"/>
<path fill="#FC583F" opacity="1.000000" stroke="none" 
	d="
M284.471680,119.987213 
	C284.038513,119.986870 284.022003,119.616371 284.007019,119.431519 
	C286.177917,119.247818 288.363831,119.248978 290.760559,119.589279 
	C288.949219,119.948143 286.927032,119.967850 284.471680,119.987213 
z"/>
<path fill="#ECC34E" opacity="1.000000" stroke="none" 
	d="
M221.145309,331.404541 
	C223.087982,331.146271 225.224884,331.251831 227.680969,331.587341 
	C225.779938,331.800964 223.559738,331.784668 221.145309,331.404541 
z"/>
<path fill="#ECC34E" opacity="1.000000" stroke="none" 
	d="
M214.918060,366.399597 
	C215.831131,366.501129 216.807495,366.977875 217.876251,367.786621 
	C216.972885,367.670685 215.977112,367.222748 214.918060,366.399597 
z"/>
<path fill="#17C6F0" opacity="1.000000" stroke="none" 
	d="
M153.576004,202.051926 
	C153.947144,203.306107 153.971909,204.712296 153.968018,206.538300 
	C153.702789,205.373383 153.466217,203.788651 153.576004,202.051926 
z"/>
<path fill="#ECC34E" opacity="1.000000" stroke="none" 
	d="
M327.943115,262.713806 
	C327.491699,262.443390 327.117645,261.843842 326.886475,261.035217 
	C327.359741,261.345642 327.690125,261.865173 327.943115,262.713806 
z"/>
<path fill="#ECC34E" opacity="1.000000" stroke="none" 
	d="
M245.108643,256.387878 
	C246.116547,256.169403 247.294434,256.292511 248.775055,256.613464 
	C247.811401,256.784027 246.544998,256.756775 245.108643,256.387878 
z"/>
<path fill="#ECC34E" opacity="1.000000" stroke="none" 
	d="
M338.392365,252.064148 
	C338.517059,251.452911 338.996399,250.809402 339.789185,250.101013 
	C339.650757,250.701370 339.198914,251.366623 338.392365,252.064148 
z"/>
<path fill="#FDE707" opacity="1.000000" stroke="none" 
	d="
M323.163696,227.397461 
	C323.827576,227.552734 324.420441,227.980515 325.012939,228.710114 
	C324.568085,228.996170 324.123627,228.980423 323.356201,228.878357 
	C323.053009,228.418015 323.072815,228.043991 323.163696,227.397461 
z"/>
<path fill="#FED114" opacity="1.000000" stroke="none" 
	d="
M221.129791,371.416809 
	C221.594284,371.237854 222.149353,371.339050 222.815308,371.754944 
	C222.357574,371.945404 221.788956,371.821198 221.129791,371.416809 
z"/>
<path fill="#ECC34E" opacity="1.000000" stroke="none" 
	d="
M231.200226,331.924225 
	C231.393524,331.580017 231.919632,331.298676 232.750153,331.031525 
	C232.547379,331.359528 232.040207,331.673309 231.200226,331.924225 
z"/>
<path fill="#ECC34E" opacity="1.000000" stroke="none" 
	d="
M324.916626,190.684479 
	C324.588196,190.495407 324.329071,189.989182 324.058960,189.192993 
	C324.360657,189.391129 324.673309,189.879227 324.916626,190.684479 
z"/>
<path fill="#FED114" opacity="1.000000" stroke="none" 
	d="
M222.996002,372.301819 
	C223.236328,372.166687 223.496033,372.354889 223.824890,372.825623 
	C223.653473,372.874969 223.360580,372.713928 222.996002,372.301819 
z"/>
<path fill="#FED90E" opacity="1.000000" stroke="none" 
	d="
M323.295013,283.998718 
	C323.129150,283.787811 323.274261,283.532745 323.644012,283.163330 
	C323.720856,283.316528 323.633270,283.618378 323.295013,283.998718 
z"/>
<path fill="#B21C6A" opacity="1.000000" stroke="none" 
	d="
M232.856415,124.816368 
	C232.911240,125.000038 232.477966,125.070862 232.262650,125.030914 
	C232.298752,124.871544 232.550171,124.752121 232.856415,124.816368 
z"/>
<path fill="#ECC34E" opacity="1.000000" stroke="none" 
	d="
M219.966721,370.260803 
	C220.184769,370.165039 220.454208,370.319794 220.984711,370.862183 
	C220.836563,371.003662 220.427338,370.757538 219.966721,370.260803 
z"/>
<path fill="#ECC34E" opacity="1.000000" stroke="none" 
	d="
M218.977081,369.286285 
	C219.194809,369.210205 219.483932,369.403961 219.879181,369.841431 
	C219.673050,369.908813 219.360764,369.732452 218.977081,369.286285 
z"/>
<path fill="#ECC34E" opacity="1.000000" stroke="none" 
	d="
M217.963562,368.287537 
	C218.173141,368.215820 218.464188,368.413055 218.871490,368.851440 
	C218.673508,368.913849 218.359268,368.735138 217.963562,368.287537 
z"/>
<path fill="#B21C6A" opacity="1.000000" stroke="none" 
	d="
M233.314301,136.912460 
	C233.106094,136.671112 233.235565,136.421875 233.632324,136.094543 
	C233.723145,136.263718 233.640594,136.559769 233.314301,136.912460 
z"/>
<path fill="#B21C6A" opacity="1.000000" stroke="none" 
	d="
M232.034576,137.281769 
	C232.122543,137.045181 232.293198,137.025650 232.719894,137.029083 
	C232.689697,137.200974 232.403488,137.349915 232.034576,137.281769 
z"/>
<path fill="#ECC34E" opacity="1.000000" stroke="none" 
	d="
M208.347717,362.963440 
	C208.388977,362.590210 208.632904,362.582947 208.923920,363.002502 
	C208.965576,363.151733 208.544983,363.051788 208.347717,362.963440 
z"/>
<path fill="#ECC34E" opacity="1.000000" stroke="none" 
	d="
M261.696228,218.040833 
	C261.839996,218.255173 261.701447,218.560135 261.374969,219.040527 
	C261.262695,218.854462 261.338287,218.492966 261.696228,218.040833 
z"/>
<path fill="#ECC34E" opacity="1.000000" stroke="none" 
	d="
M173.119705,338.791901 
	C173.018433,339.061737 172.801376,339.070374 172.264313,339.017883 
	C172.297485,338.814758 172.650696,338.672729 173.119705,338.791901 
z"/>
<path fill="#FEC91C" opacity="1.000000" stroke="none" 
	d="
M306.008301,219.703949 
	C305.783051,219.825546 305.528168,219.637344 305.191650,219.182861 
	C305.352661,219.139313 305.642212,219.298508 306.008301,219.703949 
z"/>
<path fill="#ECC34E" opacity="1.000000" stroke="none" 
	d="
M260.760437,219.938202 
	C260.895874,220.137238 260.734070,220.395630 260.344116,220.766998 
	C260.283936,220.618546 260.399689,220.324417 260.760437,219.938202 
z"/>
<path fill="#ECC34E" opacity="1.000000" stroke="none" 
	d="
M328.282867,257.017212 
	C328.220032,256.804169 328.429077,256.523102 328.881409,256.131348 
	C328.934753,256.330170 328.744781,256.639679 328.282867,257.017212 
z"/>
<path fill="#ECC34E" opacity="1.000000" stroke="none" 
	d="
M249.956482,257.254639 
	C250.150604,257.203888 250.454514,257.422913 250.890411,257.894531 
	C250.703690,257.939575 250.384964,257.731995 249.956482,257.254639 
z"/>
<path fill="#ECC34E" opacity="1.000000" stroke="none" 
	d="
M327.233276,258.167480 
	C327.155060,257.962097 327.346680,257.613861 327.813843,257.139099 
	C327.893982,257.349945 327.698547,257.687317 327.233276,258.167480 
z"/>
<path fill="#ECC34E" opacity="1.000000" stroke="none" 
	d="
M327.273712,260.144104 
	C326.960541,260.014160 326.945587,259.745209 326.942902,259.070679 
	C327.160736,259.111816 327.366364,259.558472 327.273712,260.144104 
z"/>
<path fill="#000000" opacity="1.000000" stroke="none" 
	d="
M244.953918,245.958771 
	C240.424561,246.772079 232.065155,241.002609 232.166779,236.624496 
	C232.213898,234.594391 233.498108,231.759644 235.105331,230.848129 
	C236.533905,230.037949 239.183243,231.380280 241.609161,231.900055 
	C241.924576,232.027557 241.962082,232.024933 241.995453,232.373718 
	C242.410889,233.510681 242.792953,234.298874 243.175034,235.087067 
	C243.175034,235.087067 243.026428,235.469101 242.644516,235.735687 
	C242.249878,236.911484 242.007263,237.893463 242.267609,238.716293 
	C243.043106,241.167282 244.016144,243.555771 244.912018,245.968689 
	C244.912018,245.968689 244.971283,245.983917 244.953918,245.958771 
z"/>
<path fill="#F7A634" opacity="1.000000" stroke="none" 
	d="
M245.195190,245.820496 
	C244.016144,243.555771 243.043106,241.167282 242.267609,238.716293 
	C242.007263,237.893463 242.249878,236.911484 242.620483,235.939224 
	C245.003693,238.837372 247.713013,241.623978 245.195190,245.820496 
z"/>
<path fill="#F7A634" opacity="1.000000" stroke="none" 
	d="
M243.449478,234.986679 
	C242.792953,234.298874 242.410889,233.510681 241.995804,232.391083 
	C242.549850,233.001892 243.136887,233.944092 243.449478,234.986679 
z"/>
<path fill="#FED90E" opacity="1.000000" stroke="none" 
	d="
M304.275574,292.342010 
	C303.950104,292.278412 303.753815,292.094055 303.557556,291.909668 
	C303.668488,291.806396 303.779449,291.703125 303.890411,291.599854 
	C304.061859,291.806976 304.233337,292.014099 304.275574,292.342010 
z"/>
<path fill="#FEC91C" opacity="1.000000" stroke="none" 
	d="
M297.316315,219.361786 
	C298.101624,219.154938 299.125092,219.130600 300.528412,219.153030 
	C299.790344,219.314636 298.672394,219.429474 297.316315,219.361786 
z"/>
<path fill="#FDB922" opacity="1.000000" stroke="none" 
	d="
M232.441223,228.041031 
	C232.166382,228.232086 231.895401,228.242905 231.624435,228.253723 
	C231.627960,228.100784 231.631485,227.947845 231.635010,227.794907 
	C231.905045,227.816864 232.175079,227.838837 232.441223,228.041031 
z"/>
<path fill="#FEC91C" opacity="1.000000" stroke="none" 
	d="
M253.961914,320.013428 
	C253.981384,325.972534 253.844147,331.937469 254.064301,337.889160 
	C254.285400,343.865997 249.447403,342.033173 246.642105,342.568604 
	C243.715164,343.127228 241.694839,341.395599 241.911057,337.863647 
	C242.113083,334.563812 242.003693,331.244904 242.427155,327.463257 
	C244.107254,326.414032 245.493454,325.990631 246.654831,325.225891 
	C249.151932,323.581665 251.533218,321.761536 253.961914,320.013428 
z"/>
<path fill="#FDB922" opacity="1.000000" stroke="none" 
	d="
M253.979095,319.546692 
	C251.533218,321.761536 249.151932,323.581665 246.654831,325.225891 
	C245.493454,325.990631 244.107254,326.414032 242.443314,326.997131 
	C242.047958,321.369934 242.186737,315.731750 241.969910,310.107269 
	C241.780731,305.200378 245.136703,306.022095 248.026199,305.999451 
	C250.954025,305.976532 254.338318,305.263611 254.038239,310.136261 
	C253.855270,313.107086 253.999176,316.098022 253.979095,319.546692 
z"/>
<path fill="#0ECAF6" opacity="1.000000" stroke="none" 
	d="
M169.978119,255.017700 
	C169.500015,251.164352 171.122513,249.596359 175.070251,249.950089 
	C178.191803,250.229767 181.361221,250.107056 184.503250,249.993423 
	C188.483139,249.849518 189.076721,252.207245 189.035751,255.446213 
	C188.992691,258.849243 187.702225,260.350952 184.153030,259.741669 
	C182.556473,259.467590 180.805481,259.400208 179.242508,259.756500 
	C174.970184,260.730469 172.459305,258.715088 170.298996,255.134247 
	C169.964218,255.042389 170.000153,255.001114 169.978119,255.017700 
z"/>
<path fill="#FED90E" opacity="1.000000" stroke="none" 
	d="
M315.965790,212.431900 
	C316.686188,213.285065 317.935883,214.566452 317.993011,215.898956 
	C318.192352,220.550201 317.979462,225.219131 317.854218,230.324738 
	C316.939240,227.716858 315.700470,224.708298 315.362854,221.601791 
	C315.053009,218.750595 315.714630,215.793823 315.965790,212.431900 
z"/>
</svg>